<?xml version="1.0" encoding="UTF-8" standalone="no"?>
<svg
   xmlns:dc="http://purl.org/dc/elements/1.1/"
   xmlns:cc="http://creativecommons.org/ns#"
   xmlns:rdf="http://www.w3.org/1999/02/22-rdf-syntax-ns#"
   xmlns:svg="http://www.w3.org/2000/svg"
   xmlns="http://www.w3.org/2000/svg"
   xmlns:sodipodi="http://sodipodi.sourceforge.net/DTD/sodipodi-0.dtd"
   xmlns:inkscape="http://www.inkscape.org/namespaces/inkscape"
   id="dartboard1"
   version="1.1"
   x="0px"
   y="0px"
   width="795"
   height="795"
   viewBox="0 0 795 795"
   enable-background="new 0 0 787 774"
   xml:space="preserve"
   sodipodi:docname="dartboard.svg"
   inkscape:version="0.92.1 r15371"><metadata
     id="metadata79"><rdf:RDF><cc:Work
         rdf:about=""><dc:format>image/svg+xml</dc:format><dc:type
           rdf:resource="http://purl.org/dc/dcmitype/StillImage" /><dc:title></dc:title></cc:Work></rdf:RDF></metadata><defs
     id="defs77"><pattern
       y="0"
       x="0"
       height="6"
       width="6"
       patternUnits="userSpaceOnUse"
       id="EMFhbasepattern" /></defs><sodipodi:namedview
     pagecolor="#ffffff"
     bordercolor="#666666"
     borderopacity="1"
     objecttolerance="10"
     gridtolerance="10"
     guidetolerance="10"
     inkscape:pageopacity="0"
     inkscape:pageshadow="2"
     inkscape:window-width="1680"
     inkscape:window-height="988"
     id="namedview75"
     showgrid="false"
     inkscape:zoom="1"
     inkscape:cx="289.20475"
     inkscape:cy="420.2795"
     inkscape:window-x="-8"
     inkscape:window-y="75"
     inkscape:window-maximized="1"
     inkscape:current-layer="dartboard1" /><g
     id="areas"
     transform="matrix(1.0324675,0,0,1.0324675,-17.035715,-4.1299604)"><g
       id="g3"><circle
         id="miss"
         cx="401.5"
         cy="389"
         r="385"
         style="fill:#000000;fill-opacity:0.75700935" /></g><g
       id="s"><path
         id="s19"
         d="m 327.95,561.926 c -1.952,-0.825 -3.879,-1.693 -5.795,-2.581 l 66.1,-138.906 c 2.034,0.8 4.2,1.5 6.4,1.884 L 374.688,574.84 C 358.626,572.6 343,568.3 327.9,561.926 Z M 358.728,696.9 372.094,594.661 c -17.849,-2.479 -35.233,-7.257 -51.936,-14.321 -2.225,-0.941 -4.422,-1.932 -6.605,-2.945 l -44.31,93.1 c 3.562,1.7 7.2,3.3 10.8,4.827 25.285,10.778 51.657,17.978 78.657,21.606 z"
         inkscape:connector-curvature="0"
         style="fill:#f7e9cd" /><path
         id="s14"
         d="m 215.161,362.688 c 2.248,-16.062 6.555,-31.707 12.914,-46.739 0.825,-1.952 1.693,-3.879 2.581,-5.796 l 138.907,66.1 c -0.828,2.034 -1.463,4.165 -1.884,6.372 z m -122.088,-15.96 102.239,13.366 c 2.479,-17.849 7.256,-35.233 14.321,-51.936 0.941,-2.225 1.932,-4.422 2.945,-6.605 l -93.115,-44.31 c -1.667,3.562 -3.29,7.15 -4.828,10.8 C 103.936,293.3 96.7,319.7 93.1,346.728 Z"
         inkscape:connector-curvature="0" /><path
         id="s4"
         d="m 533.705,256.295 c 12.355,12.4 22.8,26.2 31.2,41.238 l -135.129,73.5 c -1.18,-1.886 -2.539,-3.646 -4.054,-5.26 l 105.77,-111.661 c 0.745,0.788 1.508,1.488 2.208,2.183 z M 620.759,169.2 c -1.515,-1.515 -3.051,-3.004 -4.592,-4.484 l -70.903,74.852 c 0.869,0.8 1.7,1.7 2.6,2.5 13.724,13.7 25.3,29.1 34.6,45.823 l 90.58,-49.287 C 659.04,213.3 641.5,190 620.8,169.241 Z"
         inkscape:connector-curvature="0"
         style="fill:#f7e9cd" /><path
         id="s16"
         d="M 268.295,521.705 C 255.94,509.35 245.499,495.53 237.088,480.467 l 135.129,-73.528 c 1.179,1.9 2.5,3.6 4.1,5.26 L 270.547,523.86 C 269.763,523.1 269,522.4 268.3,521.705 Z m -82.462,91.495 70.903,-74.852 c -0.868,-0.84 -1.738,-1.678 -2.594,-2.533 -13.724,-13.725 -25.313,-29.081 -34.638,-45.823 l -90.58,49.3 c 14.036,25.4 31.5,48.7 52.3,69.437 1.532,1.571 3.076,3.071 4.576,4.514 z"
         inkscape:connector-curvature="0"
         style="fill:#f7e9cd" /><path
         id="s9"
         d="m 232.372,306.542 c 8.066,-16.491 18.461,-31.617 31.017,-45.137 l 111.66,105.8 c -1.425,1.691 -2.689,3.522 -3.766,5.471 z m -18.078,-8.604 c 8.97,-18.388 20.556,-35.244 34.564,-50.298 L 174.01,176.742 c -21.495,22.955 -39.214,48.724 -52.84,76.883 z"
         inkscape:connector-curvature="0"
         style="fill:#f7e9cd" /><path
         id="s7"
         d="m 318.542,557.628 c -16.491,-8.065 -31.616,-18.461 -45.137,-31.017 l 105.769,-111.66 c 1.691,1.4 3.5,2.7 5.5,3.8 z m -8.603,18.078 c -18.388,-8.97 -35.245,-20.556 -50.299,-34.564 l -70.898,74.8 c 22.955,21.5 48.7,39.2 76.9,52.84 z"
         inkscape:connector-curvature="0" /><path
         id="s8"
         d="m 228.074,462.051 c -5.027,-11.887 -8.772,-24.156 -11.234,-36.711 l 151.229,-28.172 c 0.54,2.2 1.3,4.3 2.2,6.3 L 235.145,476.993 C 232.603,472.1 230.2,467.1 228.1,462.051 Z m -101.069,73.761 90.584,-49.29 c -2.885,-5.424 -5.546,-10.981 -7.956,-16.681 -5.592,-13.221 -9.749,-26.869 -12.473,-40.836 L 95.789,447.9 c 4.072,21.2 10.3,42 18.8,62.082 3.784,8.818 7.911,17.418 12.411,25.83 z"
         inkscape:connector-curvature="0" /><path
         id="s12"
         d="m 268.295,256.295 c 12.355,-12.356 26.175,-22.796 41.238,-31.207 l 73.528,135.1 c -1.885,1.18 -3.646,2.539 -5.259,4.054 L 266.14,258.472 c 0.715,-0.672 1.46,-1.472 2.16,-2.177 z m -91.539,-82.495 74.853,70.903 c 0.839,-0.868 1.677,-1.738 2.533,-2.594 13.724,-13.724 29.08,-25.313 45.823,-34.639 l -49.287,-90.58 c -25.392,14.036 -48.663,31.543 -69.437,52.317 -1.515,1.593 -3.041,3.093 -4.441,4.626 z"
         inkscape:connector-curvature="0" /><path
         id="s1"
         d="m 479.846,218.655 -66.101,138.907 c -2.034,-0.828 -4.165,-1.463 -6.372,-1.884 l 19.939,-152.517 c 16.062,2.2 31.7,6.6 46.7,12.914 1.99,0.825 3.888,1.725 5.788,2.58 z m -36.574,-137.582 -13.365,102.2 c 17.849,2.5 35.2,7.3 51.9,14.321 2.225,0.9 4.4,1.9 6.6,2.945 l 44.31,-93.115 c -3.562,-1.667 -7.15,-3.29 -10.786,-4.828 C 496.672,91.9 470.3,84.7 443.3,81.073 Z"
         inkscape:connector-curvature="0"
         style="fill:#f7e9cd" /><path
         id="s18"
         d="m 483.458,220.372 c 16.491,8.1 31.6,18.5 45.1,31.017 l -105.769,111.7 c -1.691,-1.425 -3.522,-2.689 -5.472,-3.766 z m 8.603,-18.078 c 18.388,9 35.2,20.6 50.3,34.564 l 70.898,-74.847 c -22.955,-21.496 -48.725,-39.215 -76.883,-52.84 z"
         inkscape:connector-curvature="0" /><path
         id="s20"
         d="m 401,201.327 c 7.521,0 15,0.4 22.3,1.319 l -19.938,152.518 c -0.796,-0.056 -1.596,-0.095 -2.406,-0.095 -1.435,0 -2.846,0.1 -4.235,0.274 L 368.55,204.107 C 379.217,202.3 390,201.3 401,201.327 Z m -54.958,-118.281 18.884,101.4 c 11.825,-2.069 23.87,-3.111 36.074,-3.111 8.396,0 16.7,0.5 24.9,1.484 L 439.267,80.569 C 426.638,79.022 413.859,78.238 400.959,78.238 382.4,78.2 364.1,79.8 346,83.046 Z"
         inkscape:connector-curvature="0" /><path
         id="s5"
         d="m 327.95,216.074 c 11.887,-5.028 24.156,-8.772 36.711,-11.234 l 28.17,151.2 c -2.177,0.54 -4.271,1.29 -6.26,2.229 L 313.046,223.145 C 317.894,220.6 322.9,218.2 327.9,216.074 Z M 254.187,115 l 49.29,90.584 c 5.423,-2.885 10.982,-5.546 16.681,-7.956 13.221,-5.592 26.87,-9.749 40.837,-12.473 L 342.112,83.8 c -21.24,4.071 -41.993,10.35 -62.083,18.848 -8.836,3.752 -17.429,7.852 -25.829,12.357 z"
         inkscape:connector-curvature="0"
         style="fill:#f7e9cd" /><path
         id="s3"
         d="m 401,576.674 c -7.519,0 -14.968,-0.448 -22.335,-1.318 l 19.936,-152.519 c 0.793,0.1 1.6,0.1 2.4,0.1 1.432,0 2.84,-0.1 4.226,-0.272 l 28.165,151.237 C 422.772,575.7 412,576.7 401,576.674 Z m 54.937,118.284 -18.88,-101.377 c -11.819,2.066 -23.858,3.108 -36.057,3.108 -8.393,0 -16.708,-0.503 -24.93,-1.482 l -13.365,102.2 c 12.625,1.5 25.4,2.3 38.3,2.329 18.588,0.064 36.895,-1.536 54.895,-4.778 z"
         inkscape:connector-curvature="0" /><path
         id="s10"
         d="m 586.84,415.312 c -2.248,16.062 -6.556,31.705 -12.914,46.738 -0.825,1.951 -1.693,3.879 -2.581,5.8 L 432.439,401.749 c 0.828,-2.034 1.463,-4.166 1.884,-6.373 z m 122.088,15.96 -102.239,-13.365 c -2.479,17.849 -7.257,35.231 -14.321,51.935 -0.941,2.226 -1.932,4.423 -2.945,6.606 l 93.114,44.3 c 1.667,-3.562 3.289,-7.15 4.827,-10.786 10.7,-25.262 17.936,-51.662 21.536,-78.69 z"
         inkscape:connector-curvature="0" /><path
         id="s17"
         d="m 474.051,561.926 c -11.888,5.027 -24.157,8.772 -36.712,11.234 L 409.168,421.931 c 2.178,-0.541 4.271,-1.291 6.261,-2.229 l 73.525,135.124 c -4.848,2.574 -9.854,4.974 -14.854,7.1 z M 547.812,663 498.522,572.416 c -5.424,2.885 -10.981,5.546 -16.681,7.956 -13.222,5.592 -26.87,9.748 -40.837,12.473 l 18.883,101.4 c 21.241,-4.072 41.993,-10.351 62.084,-18.849 8.836,-3.796 17.429,-7.896 25.829,-12.401 z"
         inkscape:connector-curvature="0"
         style="fill:#f7e9cd" /><path
         id="s13"
         d="m 573.926,315.95 c 5.027,11.9 8.8,24.2 11.2,36.711 l -151.229,28.17 c -0.541,-2.177 -1.291,-4.271 -2.229,-6.26 l 135.123,-73.525 c 2.606,4.854 5.009,9.854 7.109,14.904 z m 101.069,-73.762 -90.584,49.3 c 2.885,5.4 5.5,11 8,16.681 5.592,13.2 9.7,26.9 12.5,40.837 L 706.283,330.123 C 702.211,308.883 695.932,288.131 687.434,268.04 683.627,259.2 679.5,250.6 675,242.188 Z"
         inkscape:connector-curvature="0" /><path
         id="s2"
         d="M 533.705,521.705 C 521.35,534.06 507.53,544.502 492.467,552.912 L 418.939,417.783 c 1.886,-1.18 3.646,-2.539 5.26,-4.054 l 111.661,105.77 c -0.715,0.701 -1.46,1.501 -2.16,2.206 z m 91.538,82.462 -74.852,-70.902 c -0.84,0.868 -1.678,1.738 -2.533,2.594 -13.725,13.724 -29.081,25.313 -45.823,34.639 l 49.287,90.6 c 25.391,-14.035 48.662,-31.543 69.437,-52.317 1.514,-1.581 3.041,-3.081 4.441,-4.614 z"
         inkscape:connector-curvature="0" /><path
         id="s6"
         d="m 434.658,384.765 151.235,-28.172 c 1.847,10.6 2.8,21.4 2.8,32.4 0,7.521 -0.448,14.975 -1.319,22.345 L 434.856,391.4 c 0.056,-0.796 0.095,-1.596 0.095,-2.406 -0.019,-1.394 -0.151,-2.794 -0.251,-4.229 z m 170.92,-31.839 c 2.068,11.8 3.1,23.9 3.1,36.1 0,8.396 -0.503,16.715 -1.484,24.94 l 102.251,13.367 c 1.546,-12.629 2.33,-25.408 2.33,-38.308 0,-18.6 -1.623,-36.95 -4.832,-54.958 z"
         inkscape:connector-curvature="0"
         style="fill:#f7e9cd" /><path
         id="s11"
         d="M 95.046,443.96 C 91.837,425.951 90.213,407.601 90.213,389 c 0,-12.899 0.784,-25.678 2.331,-38.307 l 102.25,13.367 c -0.981,8.225 -1.484,16.544 -1.484,24.94 0,12.2 1,24.2 3.1,36.075 z M 367.069,389 c 0,-0.81 0.039,-1.61 0.095,-2.406 L 214.646,366.656 c -0.871,7.37 -1.319,14.823 -1.319,22.345 0,11 0.9,21.8 2.8,32.4 L 367.363,393.228 C 367.169,391.8 367.1,390.4 367.1,389 Z"
         inkscape:connector-curvature="0"
         style="fill:#f7e9cd" /><path
         id="s15"
         d="m 569.628,471.458 c -8.065,16.491 -18.461,31.616 -31.017,45.138 L 426.952,410.8 c 1.425,-1.691 2.688,-3.522 3.766,-5.471 z m 18.078,8.604 c -8.97,18.388 -20.556,35.244 -34.564,50.299 l 74.847,70.9 c 21.496,-22.955 39.216,-48.725 52.841,-76.883 z"
         inkscape:connector-curvature="0"
         style="fill:#f7e9cd" /></g><g
       id="d"><path
         id="d2"
         d="m 622.88,610.88 c -20.979,20.979 -44.481,38.659 -70.124,52.831 l 7.533,13.8 c 30.7,-16.899 54.398,-35.119 78.62,-60.443 l -11.488,-10.882 c -1.499,1.614 -3.021,3.114 -4.521,4.694 z"
         inkscape:connector-curvature="0"
         style="fill:#ed3737" /><path
         id="d17"
         d="m 523.14,678.127 c -20.291,8.582 -41.251,14.923 -62.702,19.034 l 2.886,15.5 c 34.421,-6.584 62.59,-16.587 93.452,-33.186 l -7.529,-13.838 C 540.768,670.2 532.1,674.4 523.1,678.127 Z"
         inkscape:connector-curvature="0"
         style="fill:#4f9962" /><path
         id="d15"
         d="m 630.166,603.32 11.494,10.888 c 23.974,-25.555 40.883,-50.205 56.096,-81.778 l -14.218,-6.766 C 669.777,554.1 651.9,580.1 630.2,603.32 Z"
         inkscape:connector-curvature="0"
         style="fill:#4f9962" /><path
         id="d6"
         d="m 725.388,330.608 -15.484,2.884 c 3.243,18.2 4.9,36.7 4.9,55.5 0,13.03 -0.792,25.939 -2.355,38.696 l 15.643,2.045 C 732.446,395 731.6,365.1 725.4,330.608 Z"
         inkscape:connector-curvature="0"
         style="fill:#4f9962" /><path
         id="d14"
         d="m 111.874,266.859 c 1.555,-3.676 3.195,-7.305 4.881,-10.906 l -14.23,-6.771 c -14.904,31.716 -23.368,60.385 -28.08,95.111 l 15.653,2.046 C 93.802,319 101.1,292.4 111.9,266.859 Z"
         inkscape:connector-curvature="0"
         style="fill:#ed3737" /><path
         id="d10"
         d="m 690.127,511.14 c -1.555,3.677 -3.195,7.306 -4.882,10.907 l 14.229,6.8 c 14.903,-31.712 23.367,-60.381 28.08,-95.11 l -15.652,-2.046 C 708.198,459 700.9,485.6 690.1,511.14 Z"
         inkscape:connector-curvature="0"
         style="fill:#ed3737" /><path
         id="d11"
         d="m 87.214,389 c 0,-13.03 0.792,-25.938 2.355,-38.696 l -15.643,-2.045 c -4.373,34.77 -3.564,64.7 2.7,99.134 l 15.485,-2.885 C 88.854,426.3 87.2,407.8 87.2,389 Z"
         inkscape:connector-curvature="0"
         style="fill:#4f9962" /><path
         id="d19_1_"
         d="m 278.859,678.127 c -3.676,-1.555 -7.305,-3.195 -10.906,-4.882 l -6.771,14.2 c 31.715,14.9 60.4,23.4 95.1,28.08 l 2.046,-15.652 C 331.017,696.2 304.4,688.9 278.9,678.127 Z"
         inkscape:connector-curvature="0"
         style="fill:#4f9962" /><path
         id="d8"
         d="M 111.874,511.14 C 103.291,490.849 96.951,469.891 92.84,448.439 l -15.494,2.9 c 6.585,34.4 16.6,62.6 33.2,93.45 l 13.837,-7.529 C 119.825,528.8 115.6,520.1 111.9,511.14 Z"
         inkscape:connector-curvature="0"
         style="fill:#ed3737" /><path
         id="d16"
         d="M 179.12,610.88 C 158.141,589.901 140.462,566.4 126.289,540.756 l -13.844,7.5 c 16.9,30.7 35.1,54.4 60.4,78.621 l 10.883,-11.488 C 182.209,613.9 180.7,612.4 179.1,610.88 Z"
         inkscape:connector-curvature="0"
         style="fill:#4f9962" /><path
         id="d7"
         d="m 186.679,618.167 -10.888,11.494 c 25.558,24 50.2,40.9 81.8,56.095 l 6.765,-14.217 C 235.892,657.8 209.9,639.9 186.7,618.167 Z"
         inkscape:connector-curvature="0"
         style="fill:#ed3737" /><path
         id="d3"
         d="m 401,702.786 c -13.026,0 -25.93,-0.792 -38.684,-2.354 l -2.057,15.7 c 14.603,1.8 28.2,2.8 41.6,2.828 0.001,0 0,0 0,0 18.557,0 37.397,-1.848 57.523,-5.491 l -2.905,-15.602 C 438.306,701.1 419.8,702.8 401,702.786 Z"
         inkscape:connector-curvature="0"
         style="fill:#ed3737" /><path
         id="d1"
         d="m 523.14,99.874 c 3.677,1.6 7.3,3.2 10.9,4.882 l 6.771,-14.23 C 509.092,75.621 480.424,67.157 445.701,62.447 l -2.046,15.652 C 470.984,81.8 497.6,89.1 523.1,99.874 Z"
         inkscape:connector-curvature="0"
         style="fill:#4f9962" /><path
         id="d20"
         d="m 401,75.214 c 13.03,0 25.9,0.8 38.7,2.355 l 2.045,-15.642 c -14.604,-1.835 -28.238,-2.729 -41.611,-2.729 -18.558,0 -37.395,1.772 -57.521,5.416 l 2.884,15.5 C 363.681,76.9 382.2,75.2 401,75.214 Z"
         inkscape:connector-curvature="0"
         style="fill:#ed3737" /><path
         id="d18"
         d="m 615.32,159.833 10.888,-11.494 C 600.651,124.365 576.001,107.457 544.43,92.244 l -6.766,14.2 C 566.107,120.2 592.1,138.1 615.3,159.833 Z"
         inkscape:connector-curvature="0"
         style="fill:#ed3737" /><path
         id="d5"
         d="M 278.859,99.874 C 299.151,91.291 320.11,84.951 341.562,80.84 l -2.886,-15.494 c -34.42,6.584 -62.589,16.588 -93.452,33.188 l 7.529,13.836 C 261.231,107.8 269.9,103.6 278.9,99.874 Z"
         inkscape:connector-curvature="0"
         style="fill:#4f9962" /><path
         id="d12"
         d="m 179.12,167.12 c 20.979,-20.979 44.48,-38.658 70.124,-52.831 l -7.533,-13.843 c -30.701,16.9 -54.399,35.119 -78.621,60.442 l 11.489,10.882 c 1.499,-1.57 3.021,-3.07 4.521,-4.65 z"
         inkscape:connector-curvature="0"
         style="fill:#ed3737" /><path
         id="d9"
         d="m 171.833,174.679 -11.494,-10.888 c -23.975,25.557 -40.883,50.207 -56.095,81.779 l 14.218,6.8 C 132.223,223.9 150.1,197.9 171.8,174.679 Z"
         inkscape:connector-curvature="0"
         style="fill:#4f9962" /><path
         id="d4"
         d="m 622.88,167.12 c 20.979,21 38.7,44.5 52.8,70.124 l 13.843,-7.532 c -16.898,-30.7 -35.117,-54.398 -60.442,-78.622 l -10.883,11.489 c 1.593,1.521 3.102,3.021 4.702,4.541 z"
         inkscape:connector-curvature="0"
         style="fill:#4f9962" /><path
         id="d13"
         d="m 690.127,266.859 c 8.582,20.3 14.9,41.3 19,62.703 l 15.494,-2.886 c -6.587,-34.424 -16.591,-62.592 -33.188,-93.451 l -13.836,7.529 c 4.579,8.446 8.803,17.146 12.503,26.105 z"
         inkscape:connector-curvature="0"
         style="fill:#ed3737" /></g><g
       id="t"><path
         id="t10"
         d="m 603.714,417.519 -13.899,-1.817 c -2.282,16.329 -6.661,32.233 -13.125,47.5 -0.843,1.992 -1.729,3.96 -2.636,5.917 l 12.659,6.023 c 0.994,-2.145 1.967,-4.301 2.891,-6.485 C 596.562,452.2 601.3,435.1 603.7,417.519 Z"
         inkscape:connector-curvature="0"
         style="fill:#ed3737" /><path
         id="t13"
         d="m 581.775,292.911 -12.314,6.701 c 2.618,4.9 5,10 7.2,15.2 5.112,12.1 8.9,24.6 11.4,37.331 l 13.781,-2.567 C 599.157,335.821 595.063,322.379 589.555,309.359 587.231,303.7 584.6,298.2 581.8,292.911 Z"
         inkscape:connector-curvature="0"
         style="fill:#ed3737" /><path
         id="t3"
         d="m 436.508,590.631 -2.567,-13.784 c -10.799,1.878 -21.797,2.827 -32.94,2.8 -7.649,0 -15.229,-0.456 -22.724,-1.343 l -1.817,13.9 c 8.094,1 16.3,1.5 24.5,1.5 12.053,-0.004 23.94,-1.004 35.54,-3.073 z"
         inkscape:connector-curvature="0"
         style="fill:#ed3737" /><path
         id="t2"
         d="m 548.214,531.201 -10.177,-9.639 c -0.733,0.757 -1.464,1.517 -2.211,2.3 -12.561,12.561 -26.61,23.173 -41.926,31.721 l 6.7,12.314 c 16.491,-9.188 31.617,-20.604 45.137,-34.124 0.837,-0.873 1.663,-1.673 2.463,-2.572 z"
         inkscape:connector-curvature="0"
         style="fill:#ed3737" /><path
         id="t8"
         d="m 220.225,485.089 12.315,-6.701 c -2.619,-4.934 -5.037,-9.987 -7.228,-15.169 -5.113,-12.087 -8.919,-24.562 -11.421,-37.329 l -13.781,2.566 c 2.685,13.8 6.8,27.2 12.3,40.2 2.358,5.644 4.99,11.144 7.79,16.433 z"
         inkscape:connector-curvature="0"
         style="fill:#ed3737" /><path
         id="t14"
         d="m 198.287,360.482 13.899,1.817 c 2.282,-16.33 6.661,-32.235 13.125,-47.519 0.843,-1.992 1.729,-3.959 2.635,-5.916 l -12.659,-6.024 c -0.995,2.145 -1.967,4.301 -2.891,6.5 -6.958,16.46 -11.696,33.56 -14.096,51.142 z"
         inkscape:connector-curvature="0"
         style="fill:#ed3737" /><path
         id="t7"
         d="m 317.252,560.337 c -16.775,-8.201 -32.16,-18.774 -45.91,-31.548 l -9.639,10.2 c 14.825,13.8 31.4,25.2 49.5,34.033 z"
         inkscape:connector-curvature="0"
         style="fill:#ed3737" /><path
         id="t9"
         d="m 229.663,305.252 c 8.202,-16.776 18.775,-32.161 31.548,-45.911 l -10.175,-9.638 c -13.792,14.825 -25.199,31.421 -34.033,49.525 z"
         inkscape:connector-curvature="0"
         style="fill:#4f9962" /><path
         id="t4"
         d="m 543.201,241.787 -9.64,10.176 c 0.758,0.7 1.5,1.5 2.3,2.2 12.561,12.6 23.2,26.6 31.7,41.926 l 12.314,-6.701 C 570.687,272.897 559.271,257.771 545.751,244.252 544.9,243.4 544,242.6 543.2,241.787 Z"
         inkscape:connector-curvature="0"
         style="fill:#4f9962" /><path
         id="t17"
         d="m 497.088,569.775 -6.7,-12.314 c -4.934,2.619 -9.987,5.037 -15.169,7.2 -12.088,5.112 -24.564,8.919 -37.33,11.42 l 2.566,13.781 c 13.756,-2.685 27.197,-6.779 40.219,-12.287 5.607,-2.375 11.126,-4.975 16.426,-7.8 z"
         inkscape:connector-curvature="0"
         style="fill:#4f9962" /><path
         id="t15"
         d="m 572.337,472.748 c -8.201,16.775 -18.774,32.16 -31.548,45.91 l 10.175,9.6 c 13.792,-14.825 25.199,-31.422 34.033,-49.525 z"
         inkscape:connector-curvature="0"
         style="fill:#4f9962" /><path
         id="t18"
         d="m 490.771,205.003 -6.024,12.66 c 16.776,8.2 32.2,18.8 45.9,31.548 l 9.639,-10.175 C 525.472,225.2 508.9,213.8 490.8,205.003 Z"
         inkscape:connector-curvature="0"
         style="fill:#ed3737" /><path
         id="t20"
         d="m 365.476,187.372 2.567,13.784 c 10.804,-1.88 21.808,-2.83 32.957,-2.83 7.652,0 15.2,0.5 22.7,1.344 l 1.816,-13.901 c -8.097,-0.964 -16.285,-1.459 -24.551,-1.459 -11.984,-0.01 -23.865,0.99 -35.465,3.062 z"
         inkscape:connector-curvature="0"
         style="fill:#ed3737" /><path
         id="t5"
         d="m 304.911,208.225 6.701,12.315 c 4.934,-2.619 9.988,-5.037 15.169,-7.228 12.087,-5.113 24.564,-8.919 37.331,-11.421 l -2.567,-13.781 c -13.755,2.685 -27.197,6.779 -40.218,12.3 -5.608,2.39 -11.127,4.99 -16.427,7.815 z"
         inkscape:connector-curvature="0"
         style="fill:#4f9962" /><path
         id="t1"
         d="m 429.519,186.287 -1.817,13.899 c 16.33,2.3 32.2,6.7 47.5,13.1 1.992,0.8 4,1.7 5.9,2.635 l 6.024,-12.659 c -2.145,-0.995 -4.301,-1.967 -6.485,-2.891 C 464.223,193.4 447.1,188.7 429.5,186.287 Z"
         inkscape:connector-curvature="0"
         style="fill:#4f9962" /><path
         id="t12"
         d="m 253.787,246.799 10.176,9.639 c 0.733,-0.757 1.464,-1.517 2.211,-2.264 12.56,-12.561 26.61,-23.173 41.926,-31.721 l -6.701,-12.314 c -16.491,9.188 -31.617,20.605 -45.136,34.1 -0.837,0.861 -1.663,1.661 -2.463,2.56 z"
         inkscape:connector-curvature="0"
         style="fill:#ed3737" /><path
         id="t6"
         d="m 588.844,356.043 c 1.881,10.8 2.8,21.8 2.8,32.957 0,7.652 -0.456,15.235 -1.344,22.7 l 13.9,1.816 c 0.964,-8.097 1.459,-16.286 1.459,-24.551 0,-12.019 -1.026,-23.88 -3.062,-35.524 z"
         inkscape:connector-curvature="0"
         style="fill:#4f9962" /><path
         id="t11"
         d="m 213.157,421.958 c -1.88,-10.805 -2.83,-21.809 -2.83,-32.958 0,-7.653 0.457,-15.235 1.344,-22.734 l -13.9,-1.817 c -0.964,8.097 -1.459,16.286 -1.459,24.551 0,12 1,23.9 3.1,35.525 z"
         inkscape:connector-curvature="0"
         style="fill:#4f9962" /><path
         id="t19"
         d="m 372.482,591.714 1.817,-13.899 c -16.33,-2.282 -32.234,-6.661 -47.519,-13.125 -1.992,-0.843 -3.96,-1.729 -5.916,-2.635 l -6.023,12.658 c 2.144,1 4.3,2 6.5,2.9 16.437,6.987 33.559,11.687 51.159,14.101 z"
         inkscape:connector-curvature="0"
         style="fill:#4f9962" /><path
         id="t16"
         d="m 258.799,536.214 9.639,-10.177 c -0.757,-0.733 -1.517,-1.464 -2.264,-2.211 -12.561,-12.56 -23.173,-26.609 -31.721,-41.926 l -12.314,6.701 c 9.188,16.5 20.6,31.6 34.1,45.1 0.861,0.899 1.661,1.699 2.561,2.513 z"
         inkscape:connector-curvature="0"
         style="fill:#4f9962" /></g><g
       id="bull"><path
         id="Outer"
         d="m 432.438,389 c 0,17.087 -13.852,30.938 -30.938,30.938 -17.086,0 -30.938,-13.838 -30.9,-30.938 0.038,-17.1 13.852,-30.938 30.938,-30.938 17.086,0 30.9,13.838 30.862,30.938 z M 401.5,372.602 c -9.057,0 -16.398,7.342 -16.398,16.4 0,9.058 7.342,16.4 16.4,16.398 9.058,-0.002 16.398,-7.342 16.398,-16.398 0,-9.056 -7.343,-16.402 -16.4,-16.4 z"
         inkscape:connector-curvature="0"
         style="fill:#4f9962" /><circle
         id="Bull"
         style="fill:#ed3737"
         cy="389"
         cx="401.5"
         r="13.7" /></g></g><g
     id="label"><path
       inkscape:connector-curvature="0"
       style="fill:#ffffff;fill-opacity:1;fill-rule:nonzero;stroke:none;stroke-width:2.01062274"
       d="m 271.07036,774.48204 -20.79569,-7.43226 1.41143,-3.92711 7.89325,2.82101 9.22855,-25.67727 -7.89326,-2.82099 1.30286,-3.62506 c 1.06255,0.37976 2.1251,0.75949 3.54554,1.09671 1.26862,0.28295 2.28795,0.30636 3.05797,0.0703 0.86755,-0.0308 1.84366,-0.36377 2.5162,-0.80518 0.7268,-0.59247 1.2043,-1.44447 1.73611,-2.44754 l 3.94662,1.41052 -12.43142,34.58879 7.89327,2.82099 z"
       id="path4603" /><path
       inkscape:connector-curvature="0"
       style="fill:#ffffff;fill-opacity:1;fill-rule:nonzero;stroke:none;stroke-width:2.00848985"
       d="m 390.67418,41.626602 h -27.736 v -5.763686 l 5.80521,-4.963174 c 1.93507,-1.601008 3.70887,-3.202044 5.32143,-4.803066 3.54762,-3.362152 5.96646,-6.0839 7.25652,-8.165217 1.29005,-1.921225 1.93505,-4.162649 1.93505,-6.404103 0,-2.0813295 -0.645,-3.8424454 -2.09631,-4.963174 -1.29004,-1.2808063 -3.38639,-1.7611159 -5.8052,-1.7611159 -1.77381,0 -3.54765,0.1601083 -5.48273,0.8005263 -1.93504,0.6403893 -3.8701,1.4409003 -5.64394,2.7217331 h -0.32251 v -5.763685 c 1.29005,-0.6404154 3.06387,-1.2808326 5.1602,-1.76114221 C 371.32348,0.32020234 373.4198,2.0295136e-7 375.51612,2.0295136e-7 c 4.19266,0 7.41775,0.96060558704864 9.83662,3.04194999704864 2.41882,2.0813315 3.54762,4.8030677 3.54762,8.1652198 0,1.601022 -0.16128,3.041922 -0.64505,4.322756 -0.32249,1.440915 -0.96752,2.56164 -1.61254,3.842461 -0.80629,1.120714 -1.61253,2.241425 -2.58009,3.362137 -0.96754,1.120727 -2.09632,2.241453 -3.54762,3.682355 -1.93508,1.921223 -4.0314,3.682367 -6.12773,5.443483 -1.93507,1.921224 -4.03139,3.522258 -5.80519,5.123267 h 22.09204 z"
       id="path4569" /><path
       inkscape:connector-curvature="0"
       style="fill:#ffffff;fill-opacity:1;fill-rule:nonzero;stroke:none;stroke-width:2.00848985"
       d="m 426.47293,21.133503 c 0,7.364706 -1.12878,12.80819 -3.38636,16.170342 -2.25759,3.362152 -5.80521,5.123267 -10.80413,5.123267 -4.83767,0 -8.38531,-1.761115 -10.80414,-5.123267 -2.25759,-3.522259 -3.38637,-8.805636 -3.38637,-16.010234 0,-7.204601 1.29005,-12.6480821 3.54763,-16.0102363 C 403.89713,1.7611165 407.44477,2.0295136e-7 412.28244,2.0295136e-7 c 4.99892,0 8.54654,1.76111629704864 10.80413,5.28337449704864 2.25758,3.5222472 3.38636,8.8056353 3.38636,15.8501283 z m -7.09524,12.487975 c 0.64502,-1.440903 0.96754,-3.202044 1.29003,-5.123269 0.16128,-2.08133 0.3225,-4.482864 0.3225,-7.364706 0,-2.721735 -0.16124,-5.123269 -0.3225,-7.204599 -0.32249,-1.921237 -0.80628,-3.682354 -1.4513,-5.1232821 -0.64503,-1.4409136 -1.45129,-2.5616402 -2.58008,-3.2020295 -1.1288,-0.640418 -2.58009,-1.1207276 -4.3539,-1.1207276 -1.61256,0 -3.06387,0.4803096 -4.19265,1.1207276 -1.1288,0.6403893 -2.09634,1.7611159 -2.74135,3.2020295 -0.64503,1.4409281 -0.96753,3.2020451 -1.29005,5.2833881 -0.16126,2.241428 -0.32251,4.64296 -0.32251,7.204601 0,2.881841 0.16125,5.123268 0.32251,7.044491 0.16126,1.92125 0.64502,3.682367 1.29005,5.283376 0.64501,1.280835 1.45131,2.401532 2.58008,3.202057 1.1288,0.800511 2.58007,1.120727 4.35392,1.120727 1.77381,0 3.2251,-0.320216 4.3539,-1.120727 1.12879,-0.640417 2.09632,-1.761116 2.74135,-3.202057 z"
       id="path4571" /><path
       inkscape:connector-curvature="0"
       style="fill:#ffffff;fill-opacity:1;fill-rule:nonzero;stroke:none;stroke-width:2.00848985"
       d="m 517.81925,60.065646 -21.34511,-6.262989 1.18256,-3.992787 8.19773,2.405343 7.77757,-26.260219 -8.19774,-2.405348 1.04611,-3.532088 c 1.0827,0.317681 2.32011,0.680758 3.60299,0.890254 1.32838,0.05594 2.34738,0.02112 3.21172,-0.05912 0.90985,-0.233783 1.66498,-0.512942 2.3564,-1.14464 0.64596,-0.478131 1.22822,-1.308776 1.54659,-2.383741 l 4.17623,1.225373 -10.41558,35.16721 8.04309,2.359967 z"
       id="path4573" /><path
       inkscape:connector-curvature="0"
       style="fill:#ffffff;fill-opacity:1;fill-rule:nonzero;stroke:none;stroke-width:2.00848985"
       d="m 597.58423,101.4453 -17.99104,-13.040025 2.46138,-3.364832 6.9096,5.008134 16.18819,-22.130185 -6.90959,-5.008135 2.17736,-2.976563 c 0.91261,0.661469 1.95555,1.417395 3.18786,1.914511 1.13761,0.626523 2.10918,0.934649 2.82,1.053783 1.0662,0.178707 1.87167,0.168449 2.73612,-0.195161 0.76981,-0.234186 1.59854,-0.82171 2.26121,-1.727618 l 3.51998,2.551313 -21.67893,29.636319 6.77921,4.913633 z"
       id="path4575" /><path
       inkscape:connector-curvature="0"
       style="fill:#ffffff;fill-opacity:1;fill-rule:nonzero;stroke:none;stroke-width:2.00848985"
       d="m 635.46398,114.8406 c -2.0827,2.84714 -4.96005,4.3262 -8.59634,4.66105 -3.54165,0.20546 -7.16712,-0.83806 -10.55672,-3.29489 -3.51998,-2.5513 -5.72544,-5.53607 -6.5217,-9.08369 -0.76057,-3.32372 -0.0995,-6.40917 1.98319,-9.256317 1.32535,-1.811815 3.07752,-3.116264 5.25648,-3.913302 2.08432,-0.667635 4.50075,-0.698483 7.11896,-0.186979 l 0.0946,-0.12942 c -1.16252,-2.22883 -1.70888,-4.209069 -1.63905,-5.940779 -0.0606,-1.826199 0.49496,-3.403854 1.72566,-5.08627 1.79869,-2.458897 4.35632,-3.773622 7.54258,-4.038623 3.31658,-0.170524 6.49195,0.942825 9.62085,3.210664 3.3896,2.456815 5.42899,5.123171 6.2485,8.093562 0.81955,2.970401 0.34783,5.796991 -1.35618,8.12647 -1.13603,1.553026 -2.69887,2.598624 -4.65279,3.360744 -1.95396,0.76214 -4.24001,0.88745 -6.50284,0.43556 l -0.0946,0.12939 c 1.42323,2.4178 2.13566,4.71647 2.23192,6.7666 0.22666,2.14457 -0.48253,4.20495 -1.90257,6.14623 z m 6.39367,-19.921861 c 1.136,-1.552988 1.5612,-3.225108 0.9202,-5.075955 -0.41599,-1.885785 -1.69644,-3.407925 -3.65197,-4.825325 -1.82519,-1.322897 -3.6736,-2.068582 -5.50962,-2.013108 -1.83599,0.0555 -3.33984,0.747768 -4.47586,2.300763 -0.75736,1.035332 -1.15927,2.130245 -1.07546,3.379187 0.0838,1.24896 0.5231,2.557515 1.22307,4.055015 0.33215,0.636796 0.83036,1.592011 1.58933,2.736207 0.75895,1.144182 1.5179,2.288369 2.24115,3.208651 2.22711,0.228009 3.89704,-0.145886 5.30623,-0.708734 1.27883,-0.65737 2.48623,-1.762532 3.43293,-3.056701 z m -11.24061,17.002841 c 0.94668,-1.29418 1.40758,-2.74241 1.45413,-3.89688 -0.0839,-1.24894 -0.59453,-3.00531 -1.72131,-5.0102 -0.49822,-0.95521 -1.09113,-1.78101 -1.68398,-2.6068 -0.59289,-0.825788 -1.4822,-2.064468 -2.40724,-3.527074 -2.00206,-0.262932 -3.70771,-0.112913 -5.43657,0.614242 -1.63424,0.597771 -3.06672,1.737907 -4.20272,3.290892 -1.51469,2.07065 -1.99884,4.09611 -1.64183,6.33521 0.48738,2.33358 1.70885,4.2091 3.92514,5.81547 2.08592,1.51189 4.28975,2.31713 6.44546,2.0973 2.06105,-0.0903 3.8489,-1.17093 5.26892,-3.11216 z"
       id="path4577" /><path
       inkscape:connector-curvature="0"
       style="fill:#ffffff;fill-opacity:1;fill-rule:nonzero;stroke:none;stroke-width:2.00848985"
       d="m 704.73423,190.86629 -3.64458,-4.90307 -9.31027,6.85612 -3.06911,-4.12891 9.31027,-6.85611 -11.701,-15.74143 5.04304,-3.71371 30.41743,2.1582 2.97319,3.99986 -20.17222,14.85493 3.64459,4.90308 z m -3.22236,-11.60303 14.87054,-10.95074 -24.36561,-1.82302 z"
       id="path4579" /><path
       inkscape:connector-curvature="0"
       style="fill:#ffffff;fill-opacity:1;fill-rule:nonzero;stroke:none;stroke-width:2.00848985"
       d="m 733.47587,279.76784 -6.81379,-20.91697 3.97827,-1.28387 2.636,8.09197 26.01185,-8.39459 -2.636,-8.09197 3.51926,-1.13577 c 0.34815,1.06878 0.89907,2.24083 1.44993,3.4129 0.55089,1.17203 1.15532,1.98934 1.6603,2.5013 0.75745,0.76792 1.56843,1.18112 2.32969,1.4416 0.91425,0.21118 1.77878,0.26963 3.00286,-0.12536 l 1.29312,3.96963 -35.03948,11.30802 2.58626,7.93929 z"
       id="path4581" /><path
       inkscape:connector-curvature="0"
       style="fill:#ffffff;fill-opacity:1;fill-rule:nonzero;stroke:none;stroke-width:2.00848985"
       d="m 762.83633,306.56936 c -0.46661,1.16297 -1.18574,2.06998 -2.05788,3.02633 -1.07487,0.85308 -2.35252,1.60285 -4.18864,2.19539 -1.83613,0.59257 -3.4657,0.78102 -5.19476,0.66413 -1.72904,-0.11691 -3.25155,-0.63797 -4.72049,-1.51372 -1.622,-0.82642 -3.08716,-2.20957 -4.24628,-3.69155 -1.20886,-1.6346 -2.11174,-3.36798 -2.80803,-5.50547 -0.69629,-2.13752 -1.08658,-4.37375 -1.32383,-6.65942 -0.0346,-2.18231 -0.17238,-4.16259 0.0417,-5.58155 l 5.50838,-1.77769 0.0994,0.30536 c -0.4207,1.82308 -0.79166,3.79882 -0.75714,5.98114 0.0346,2.18234 0.37505,4.26593 0.97187,6.09808 0.34815,1.06875 0.89903,2.24078 1.60297,3.36346 0.85693,1.07329 1.6641,1.99389 2.67784,2.51039 1.01371,0.51649 2.13073,0.83094 3.14828,0.84002 1.06725,0.16176 2.18806,-0.0312 3.56517,-0.47566 1.53008,-0.4938 2.55142,-0.99213 3.32031,-1.74645 0.76885,-0.7543 1.33495,-1.61194 1.54532,-2.52347 0.36338,-0.96089 0.37095,-1.97572 0.12608,-3.24652 -0.0423,-1.16751 -0.43998,-2.38897 -0.83787,-3.61038 l -0.79578,-2.44287 4.43732,-1.43202 0.59684,1.83216 c 0.89523,2.74818 2.00081,4.5849 3.77198,5.8693 1.56845,1.18113 3.34725,1.45074 5.4894,0.75942 1.07107,-0.34567 1.78637,-0.74523 2.24924,-1.40079 0.66556,-0.55228 1.07866,-1.36051 1.28901,-2.27204 0.21038,-0.91152 0.26771,-1.77369 0.17206,-2.58646 -0.14542,-0.96545 -0.29082,-1.93092 -0.63895,-2.99964 -0.54711,-1.67946 -1.44996,-3.41284 -2.65885,-5.04746 -1.20884,-1.63465 -2.57074,-3.21987 -4.13918,-4.401 l -0.0994,-0.30538 5.35539,-1.72829 c 1.00994,1.02391 2.16908,2.50587 3.27469,4.34254 1.30833,1.94 2.1079,3.87542 2.75446,5.86024 0.59683,1.83213 0.9909,3.561 1.13252,5.03385 0.19134,1.62553 -0.0229,3.04448 -0.38999,4.51282 -0.52019,1.5177 -1.13984,2.73006 -2.11524,3.88849 -1.02515,1.00576 -2.30281,1.75553 -3.83288,2.24932 -2.14216,0.69133 -4.37997,0.5699 -6.40744,-0.46312 -2.18047,-0.98359 -3.69538,-2.51944 -4.80097,-4.35614 l -0.30605,0.0988 c 0.0957,0.81277 0.0881,1.82762 -0.0229,3.04449 -0.0611,1.3696 -0.37477,2.48319 -0.7879,3.2914 z"
       id="path4583" /><path
       inkscape:connector-curvature="0"
       style="fill:#ffffff;fill-opacity:1;fill-rule:nonzero;stroke:none;stroke-width:2.00848985"
       d="m 783.58735,385.13919 c 4.17635,0.21948 7.47305,1.83928 10.05919,4.70756 2.42551,2.85981 3.54051,6.13296 3.32794,10.13996 -0.11051,2.08363 -0.52532,3.82985 -1.25284,5.39888 -0.57543,1.73774 -1.61574,3.1296 -2.96879,4.34431 -1.52219,1.36652 -3.67839,2.53903 -6.13034,3.21384 -2.62107,0.82659 -5.69004,0.98675 -9.22389,0.80104 -3.53381,-0.18572 -6.7294,-0.67512 -9.57831,-1.62793 -2.68817,-0.94492 -5.1902,-2.36223 -7.19335,-4.07478 -2.00319,-1.71253 -3.49892,-3.8806 -4.48729,-6.50418 -1.14898,-2.63202 -1.47782,-5.5424 -1.29928,-8.90825 0.0596,-1.12198 0.11052,-2.08366 0.30519,-2.71632 0.0426,-0.80142 0.24561,-1.59437 0.60094,-2.2186 l 5.1401,0.27014 -0.017,0.32054 c -0.18613,0.47242 -0.54993,1.25695 -0.76157,2.21015 -0.37226,0.9448 -0.59242,2.05835 -0.65194,3.18029 -0.20405,3.84675 0.91094,7.11986 3.20132,9.49042 2.2819,2.53081 5.58709,3.99032 9.73793,4.69068 -0.87873,-1.65346 -1.44474,-3.12975 -1.8501,-4.5976 -0.39688,-1.62813 -0.62459,-3.4081 -0.52255,-5.33144 0.0936,-1.76309 0.49133,-3.18873 0.88058,-4.45407 0.23684,-1.43418 0.94767,-2.68257 2.14859,-4.066 1.04883,-1.55215 2.55401,-2.59814 4.36343,-3.30668 1.64881,-0.71698 3.76251,-1.08807 6.17193,-0.96144 z m 0.0236,5.62667 c -1.76689,-0.0928 -3.22106,-0.008 -4.21884,0.58191 -1.14991,0.42174 -2.15619,1.17251 -3.17949,2.24382 -0.52441,0.77605 -1.05731,1.71242 -1.26896,2.66565 -0.22008,1.11353 -0.27112,2.07523 -0.33066,3.19715 -0.085,1.60285 -9.4e-4,3.05379 0.25228,4.35291 0.24475,1.45941 0.81925,2.7754 1.54588,4.26013 0.32125,0.0169 0.64254,0.0337 1.12438,0.0592 0.31277,0.17718 0.79466,0.20251 1.4372,0.23626 2.8913,0.15195 5.1571,-0.0504 6.79742,-0.60712 1.80092,-0.54828 3.12845,-1.28214 4.14326,-2.19318 0.84565,-0.75918 1.53918,-1.68709 1.91147,-2.6319 0.37225,-0.94477 0.59243,-2.0583 0.65194,-3.18025 0.14455,-2.72476 -0.54808,-4.85063 -2.07784,-6.37757 -1.52126,-1.68721 -3.73607,-2.4465 -6.78803,-2.6069 z"
       id="path4585" /><path
       inkscape:connector-curvature="0"
       style="fill:#ffffff;fill-opacity:1;fill-rule:nonzero;stroke:none;stroke-width:2.00848985"
       d="m 774.25413,523.63406 -7.07781,21.00058 -3.96497,-1.32328 2.71829,-8.06545 -26.07737,-8.70318 -2.7183,8.06546 -3.50747,-1.1706 c 0.35904,-1.06526 0.76934,-2.28268 0.87465,-3.6019 0.2578,-1.2683 0.26053,-2.28316 0.21197,-3.14585 -0.20105,-0.91359 -0.4534,-1.675 -1.06202,-2.38598 -0.45613,-0.66014 -1.26854,-1.26984 -2.33606,-1.62613 l 1.3848,-4.1088 34.9223,11.65508 2.66702,-7.91324 z"
       id="path4587" /><path
       inkscape:connector-curvature="0"
       style="fill:#ffffff;fill-opacity:1;fill-rule:nonzero;stroke:none;stroke-width:2.00848985"
       d="m 767.0421,481.1041 c 6.86247,2.29029 11.68843,5.086 14.12158,8.43751 2.63696,3.25017 3.03359,7.10705 1.49494,11.6724 -1.58994,4.71751 -4.39576,7.50559 -8.3163,8.56725 -4.07303,1.01079 -9.46452,0.3965 -16.32698,-1.8938 -6.86247,-2.29031 -11.68842,-5.08603 -14.17289,-8.28533 -2.63695,-3.25018 -3.13479,-7.31016 -1.59614,-11.87551 1.53865,-4.56534 4.39577,-7.50558 8.4688,-8.51636 4.07304,-1.01078 9.46453,-0.39646 16.32699,1.89384 z m 9.43445,10.76697 c -1.16733,-1.06676 -2.74223,-1.93095 -4.46966,-2.84607 -1.93121,-0.81385 -4.16741,-1.72945 -6.75988,-2.59468 -2.74498,-0.91611 -5.08376,-1.52737 -7.11755,-2.03684 -1.9326,-0.3064 -3.71264,-0.56188 -5.2903,-0.41123 -1.57763,0.15069 -2.80036,0.75837 -3.9219,1.56912 -0.96899,0.86166 -1.68431,1.97729 -2.24847,3.65125 -0.56417,1.67394 -0.72078,3.14536 -0.46981,4.41417 0.4035,1.31974 1.06205,2.386 2.2294,3.45278 1.16733,1.06677 2.69092,2.08314 4.57087,3.04916 2.0837,0.86471 4.31991,1.78032 6.75989,2.59465 2.74498,0.91612 5.08377,1.5274 6.96504,1.98597 1.93258,0.3064 3.56012,0.511 5.29029,0.41122 1.57764,-0.15068 2.74912,-0.60617 3.87061,-1.41694 1.12149,-0.81074 1.88812,-2.07857 2.50358,-3.90471 0.51287,-1.52176 0.66947,-2.99315 0.266,-4.31289 -0.251,-1.26881 -1.01076,-2.53817 -2.17811,-3.60496 z"
       id="path4589" /><path
       inkscape:connector-curvature="0"
       style="fill:#ffffff;fill-opacity:1;fill-rule:nonzero;stroke:none;stroke-width:2.00848985"
       d="m 716.7267,634.48551 -13.17432,17.85288 -3.3705,-2.46385 5.05972,-6.85655 -22.16747,-16.20465 -5.05972,6.85658 -2.98161,-2.17959 c 0.66828,-0.90559 1.30235,-2.03529 1.93645,-3.16502 0.6341,-1.1297 0.94765,-2.09545 1.07025,-2.80244 0.18387,-1.06052 0.17684,-1.86227 -0.1849,-2.72421 -0.23211,-0.76718 -0.81898,-1.5945 -1.85609,-2.35262 l 2.57758,-3.49296 29.81594,21.79572 4.96424,-6.72715 z"
       id="path4591" /><path
       inkscape:connector-curvature="0"
       style="fill:#ffffff;fill-opacity:1;fill-rule:nonzero;stroke:none;stroke-width:2.00848985"
       d="m 728.66089,596.40793 c 1.55561,1.13718 2.79066,2.43832 3.7393,4.12756 1.04412,1.55987 1.63803,3.18897 1.87719,4.75787 0.17798,1.92246 0.0965,3.65536 -0.40091,5.68161 -0.53159,1.80213 -1.51339,3.67342 -2.94538,5.61397 -1.33651,1.81114 -2.70722,3.39821 -4.33717,4.7957 -1.62997,1.39749 -3.19865,2.44153 -4.57639,3.22676 l -4.66683,-3.4115 0.19093,-0.25875 c 1.73248,-0.72508 3.43079,-1.67434 5.09489,-2.84768 1.75961,-1.30276 3.29411,-2.57087 4.43971,-4.12331 0.76374,-1.03495 1.26819,-2.25944 1.77264,-3.48391 0.40901,-1.09511 0.55874,-2.37978 0.35371,-3.72455 -0.17073,-1.12069 -0.56675,-2.20675 -1.15365,-3.03402 -0.62105,-1.05149 -1.56264,-1.93895 -2.72937,-2.79185 -1.16669,-0.85285 -2.16961,-1.38685 -3.23381,-1.56729 -1.06419,-0.18051 -2.1897,-0.007 -3.18557,0.2603 -1.09133,0.39714 -2.14852,1.01845 -3.26696,1.99325 -1.02299,0.84541 -2.10732,2.04433 -3.06197,3.33804 -0.95464,1.29367 -1.77967,2.68215 -2.50925,3.94121 -0.59992,1.35387 -1.23403,2.48356 -1.77266,3.48391 l -16.9821,-12.41408 14.60633,-19.79344 3.88904,2.84293 -11.45595,15.52427 8.81514,6.44395 c 0.3477,-0.74164 0.82505,-1.38847 1.30238,-2.03533 0.47731,-0.64682 0.95465,-1.29366 1.24105,-1.68177 1.33653,-1.81117 2.61174,-3.26883 3.92115,-4.50237 1.21393,-1.10416 2.7213,-1.79466 4.22867,-2.48516 1.76662,-0.50097 3.47196,-0.64843 5.24565,-0.34762 1.77368,0.30078 3.61568,1.04984 5.56019,2.47131 z"
       id="path4593" /><path
       inkscape:connector-curvature="0"
       style="fill:#ffffff;fill-opacity:1;fill-rule:nonzero;stroke:none;stroke-width:2.00848985"
       d="m 646.2015,708.80807 -22.04692,16.75056 -3.51356,-4.58148 1.58891,-7.45107 c 0.56217,-2.4413 0.99615,-4.78518 1.43012,-7.12909 0.77038,-4.81499 0.90573,-8.34188 0.79054,-10.8728 -0.14574,-2.30625 -0.9994,-4.47749 -2.36577,-6.25915 -1.2688,-1.65443 -2.98332,-2.5674 -4.69194,-2.67914 -1.93441,-0.14162 -3.76536,0.64524 -5.81625,2.20342 -1.28179,0.97386 -2.59418,2.17239 -3.8701,3.94749 -1.14777,1.67769 -2.06976,3.38525 -2.82712,5.57201 l -0.25636,0.19478 -3.51356,-4.58147 c 0.63505,-1.28818 1.65463,-2.86845 3.15635,-4.61367 1.37356,-1.64781 2.84469,-3.16838 4.51101,-4.4344 3.33267,-2.53205 6.61005,-3.81363 9.67335,-3.5226 3.19149,0.1936 5.87611,1.57796 7.92569,4.2505 0.97598,1.27263 1.59804,2.61278 2.12246,3.82564 0.49384,1.43752 0.79249,2.62052 0.93239,4.12557 0.17047,1.28039 0.0845,2.75557 -10e-4,4.23073 -0.0859,1.47514 -0.29998,3.0477 -0.44702,4.97218 -0.49513,2.79316 -0.95971,5.36168 -1.55249,8.02763 -0.49512,2.7932 -1.05728,5.23446 -1.61944,7.67574 l 17.56061,-13.34202 z"
       id="path4595" /><path
       inkscape:connector-curvature="0"
       style="fill:#ffffff;fill-opacity:1;fill-rule:nonzero;stroke:none;stroke-width:2.00848985"
       d="m 517.95441,777.79763 -20.98795,6.86894 -1.30546,-3.95439 8.11943,-2.65733 -8.58588,-26.00777 -8.11943,2.65732 -1.15484,-3.49808 c 1.07242,-0.35099 2.09459,-0.85405 3.42314,-1.45737 1.17539,-0.55322 1.99412,-1.15821 2.50648,-1.66297 0.76855,-0.75712 1.1805,-1.56599 1.43926,-2.3248 0.25875,-0.75878 0.11068,-1.72148 -0.13779,-2.98835 l 3.9831,-1.3036 11.54828,34.98118 7.96621,-2.60718 z"
       id="path4597" /><path
       inkscape:connector-curvature="0"
       style="fill:#ffffff;fill-opacity:1;fill-rule:nonzero;stroke:none;stroke-width:2.00848985"
       d="m 543.51965,732.86073 -6.72208,38.76988 -5.51506,1.80497 7.39276,-40.33759 -22.21352,7.27006 -1.50628,-4.56276 26.65619,-8.72407 z"
       id="path4599" /><path
       inkscape:connector-curvature="0"
       style="fill:#ffffff;fill-opacity:1;fill-rule:nonzero;stroke:none;stroke-width:2.00848985"
       d="m 412.27204,776.50694 c 0.96754,0.80049 1.61253,1.7611 2.25757,3.04191 0.48378,1.12074 0.80629,2.72174 0.80629,4.48288 0,1.92125 -0.32251,3.68236 -0.96756,5.12328 -0.80626,1.60102 -1.61253,2.88183 -2.90258,4.16264 -1.4513,1.28085 -3.06388,2.08135 -4.83768,2.72176 -1.93506,0.64041 -3.87013,0.96061 -6.12772,0.96061 -2.25757,0 -4.51515,-0.3202 -6.77272,-0.8005 -2.2576,-0.48033 -4.03141,-1.12073 -5.48271,-1.76111 v -5.76371 h 0.48378 c 1.61254,1.12072 3.38636,1.92121 5.48268,2.56164 2.09631,0.64042 4.19265,0.96062 6.1277,0.96062 1.12882,0 2.41886,-0.16012 3.70889,-0.48031 1.29005,-0.48031 2.41885,-0.96062 3.22513,-1.76111 0.80628,-0.80053 1.45131,-1.60104 1.77382,-2.56165 0.48376,-0.96061 0.64501,-2.24145 0.64501,-3.68235 0,-1.44095 -0.16125,-2.72175 -0.64501,-3.68237 -0.48379,-0.96059 -1.12882,-1.76113 -1.93507,-2.24142 -0.80628,-0.64042 -1.93509,-0.96063 -3.06388,-1.12073 -1.1288,-0.32017 -2.41883,-0.32017 -3.70889,-0.32017 h -2.58008 v -4.643 h 1.93506 c 2.74137,0 4.99895,-0.48028 6.61151,-1.60102 1.77381,-1.28083 2.58007,-2.88183 2.58007,-5.12328 0,-0.96062 -0.16123,-1.9212 -0.64502,-2.56161 -0.48375,-0.80053 -0.96752,-1.44095 -1.7738,-1.92126 -0.80629,-0.4803 -1.61256,-0.80049 -2.58009,-0.96058 -0.80628,-0.16011 -1.7738,-0.32022 -3.06388,-0.32022 -1.61253,0 -3.5476,0.32022 -5.48269,0.96061 -1.93504,0.64041 -3.87013,1.60102 -5.64394,2.72174 h -0.16124 v -5.76367 c 1.29004,-0.64042 3.06384,-1.28084 5.16017,-1.76115 2.25756,-0.4803 4.3539,-0.8005 6.28897,-0.8005 2.09633,0 3.87014,0.16011 5.32145,0.48031 1.61253,0.4803 2.90259,0.96059 4.19266,1.76112 1.29002,0.9606 2.25757,1.92122 2.90257,3.20204 0.80628,1.28082 1.1288,2.72174 1.1288,4.32276 0,2.24144 -0.80629,4.32275 -2.41884,5.92379 -1.61253,1.76113 -3.54763,2.72174 -5.80519,3.20205 v 0.48028 c 0.96753,0 1.93505,0.32022 3.06384,0.80054 1.12882,0.48031 2.09634,1.12072 2.90262,1.76114 z"
       id="path4601" /><path
       inkscape:connector-curvature="0"
       style="fill:#ffffff;fill-opacity:1;fill-rule:nonzero;stroke:none;stroke-width:2.00848985"
       d="m 317.67223,765.3958 c -1.19458,3.31601 -2.58416,6.22233 -4.32047,8.66484 -1.73635,2.44253 -3.81943,4.42118 -6.0432,5.83945 -2.37557,1.36411 -4.8918,2.16784 -7.54869,2.4111 -2.80872,0.18912 -5.7038,-0.33282 -8.89134,-1.46936 -0.9107,-0.32471 -1.82144,-0.64946 -2.52608,-1.0708 -0.75895,-0.27061 -1.46357,-0.69192 -1.96212,-1.20985 l 1.7376,-4.8233 0.30358,0.10823 c 0.40105,0.3131 1.05136,0.88516 1.8535,1.51135 0.85645,0.47545 1.71285,0.95088 2.92717,1.38385 3.79468,1.353 7.26481,1.22962 10.20433,-0.27358 2.93954,-1.5032 5.44592,-4.18141 7.16128,-7.99207 -1.99545,0.30899 -3.78486,0.52144 -5.25952,0.33591 -1.52901,-0.0349 -3.25294,-0.47952 -4.92259,-1.07485 -1.51791,-0.54122 -2.98147,-1.23315 -4.08717,-1.96759 -1.25749,-0.78851 -2.25461,-1.82442 -3.29487,-3.21588 -1.1378,-1.59629 -1.76589,-3.18098 -1.92756,-5.10958 -0.16167,-1.92863 0.0889,-4.05048 0.9034,-6.31138 1.35748,-3.7682 3.91814,-6.59714 7.36733,-8.08873 3.44917,-1.49159 7.07112,-1.56089 10.71402,-0.26202 1.97325,0.70357 3.5343,1.60037 5.04108,2.64789 1.30065,1.14413 2.34097,2.53561 3.12086,4.17437 1.02916,1.89778 1.4401,4.08536 1.38454,6.61689 0.0962,2.58564 -0.63188,5.55774 -1.93507,9.1752 z m -4.72638,-3.04596 c 0.9231,-2.56236 1.37971,-4.7808 1.36987,-6.65529 0.1419,-1.82037 -0.18268,-3.2968 -0.91934,-4.58001 -0.48745,-1.02428 -1.18094,-1.95189 -1.98311,-2.57807 -0.80212,-0.62621 -1.81033,-1.15576 -2.87281,-1.53462 -2.42863,-0.86593 -4.67336,-0.81588 -6.73424,0.1502 -1.90909,1.02018 -3.48251,3.0105 -4.4599,5.72363 -0.5973,1.65799 -0.93422,3.06865 -0.85894,4.28616 0.28134,1.12081 0.71449,2.2958 1.45123,3.57904 0.59602,0.72274 1.39815,1.34896 2.20026,1.97516 0.85644,0.47542 1.91894,0.85426 2.98149,1.23311 1.36607,0.48709 2.78645,0.82349 4.26114,1.00908 1.68078,0.089 3.05797,0.0699 4.54377,-0.25087 0.1086,-0.30148 0.21721,-0.60291 0.38011,-1.05511 0.26039,-0.24733 0.42328,-0.6995 0.64047,-1.30244 z"
       id="path4605" /><path
       inkscape:connector-curvature="0"
       style="fill:#ffffff;fill-opacity:1;fill-rule:nonzero;stroke:none;stroke-width:2.00848985"
       d="m 197.38018,702.73681 -35.99806,15.90026 -4.70298,-3.65447 37.6797,-16.21849 -18.30344,-14.22282 2.96955,-3.78597 22.11666,17.18593 z"
       id="path4607" /><path
       inkscape:connector-curvature="0"
       style="fill:#ffffff;fill-opacity:1;fill-rule:nonzero;stroke:none;stroke-width:2.00848985"
       d="m 70.137986,625.90379 -12.134536,-18.56671 3.505681,-2.26985 4.660369,7.13068 23.056666,-14.92872 -4.660369,-7.13068 3.101206,-2.00798 c 0.615531,0.9418 1.453812,1.93082 2.292083,2.91986 0.838271,0.98902 1.635527,1.62168 2.344873,2.11979 0.844139,0.41078 1.600369,0.68703 2.538331,0.65415 0.80315,0.0545 1.788,-0.20029 2.86671,-0.89874 l 2.37415,3.63262 -31.011912,20.07959 4.572428,6.99613 z"
       id="path4609" /><path
       inkscape:connector-curvature="0"
       style="fill:#ffffff;fill-opacity:1;fill-rule:nonzero;stroke:none;stroke-width:2.00848985"
       d="m 102.52071,651.08216 c -3.50571,2.26987 -7.12861,2.89233 -10.915616,2.08929 -3.652184,-0.89037 -6.577416,-3.01732 -8.687769,-6.2463 -1.143103,-1.74905 -1.8407,-3.40359 -2.268598,-5.23278 -0.33999,-1.69459 -0.457184,-3.342 -0.082,-5.11675 0.334185,-2.13115 1.471516,-4.20785 3.101263,-6.41192 1.582868,-1.9823 3.968827,-3.91011 6.93519,-5.83077 3.101215,-2.00797 5.97376,-3.48492 8.70562,-4.29633 2.73183,-0.81144 5.50468,-1.2665 8.22479,-0.92148 2.63215,0.21047 5.12356,1.0865 7.6092,2.54074 2.35074,1.54152 4.33797,3.70138 6.18454,6.52676 0.61553,0.9418 1.1431,1.74903 1.49482,2.2872 0.30485,0.76 0.52173,1.38546 0.82658,2.14547 l -4.44958,2.88099 -0.17585,-0.26907 c 0.005,-0.57824 -0.29895,-1.33825 -0.55686,-2.3201 -0.48068,-1.02909 -0.87344,-1.92365 -1.48897,-2.86545 -2.11034,-3.22897 -4.94764,-5.22138 -8.28915,-5.92996 -3.25354,-0.57406 -6.87644,0.0485 -10.55801,2.04919 1.68834,0.82162 3.01905,1.68327 4.21495,2.63224 1.28382,1.08352 2.4328,2.25433 3.48796,3.86883 0.96725,1.47994 1.71174,2.91267 2.1455,4.16358 0.4338,1.25096 0.68584,2.81102 0.58027,4.41119 -0.0645,1.95653 -0.57457,3.81857 -1.61806,5.45162 -0.90872,1.54574 -2.39775,3.08427 -4.42025,4.39381 z m -3.34728,-4.53434 c 1.48316,-0.96033 2.52083,-2.01513 3.20085,-3.02988 0.68006,-1.01476 1.04942,-2.21125 1.10806,-3.58953 -0.0351,-0.93465 -0.15823,-2.00378 -0.63892,-3.0329 -0.39275,-0.89456 -0.87342,-1.92364 -1.48894,-2.86545 -0.79138,-1.21086 -1.71761,-2.33443 -2.91351,-3.28339 -0.97312,-0.90171 -2.2159,-1.62882 -3.54663,-2.49052 -0.40451,0.26192 -0.7621,0.30197 -1.166607,0.56389 -0.269687,0.17461 -0.674188,0.43652 -1.078679,0.69842 -2.427026,1.57145 -4.273671,3.15008 -5.270262,4.56126 -1.084545,1.27663 -1.858405,2.73509 -2.051897,4.20068 -0.234519,1.10921 -0.11141,2.17838 0.01163,3.24753 0.257931,0.98186 0.738593,2.01096 1.354121,2.95276 1.406902,2.15266 3.224186,3.46515 5.45185,3.93758 2.139714,0.33783 4.467074,-0.21171 7.028924,-1.87045 z"
       id="path4611" /><path
       inkscape:connector-curvature="0"
       style="fill:#ffffff;fill-opacity:1;fill-rule:nonzero;stroke:none;stroke-width:2.00848985"
       d="m 40.887904,497.05753 c 3.333665,-1.1816 6.548119,-0.78756 9.740727,0.97723 3.041113,1.81851 5.443482,4.71525 6.850006,8.64651 1.460615,4.08245 1.438506,7.83859 0.182592,11.00978 -1.201783,3.32237 -3.496571,5.49874 -6.981787,6.73409 -2.121431,0.75192 -4.156208,0.79165 -6.40736,0.22654 -2.153712,-0.76998 -4.112568,-1.94984 -5.984724,-3.84192 l -0.151541,0.0536 c -0.30337,2.49279 -0.974655,4.4345 -2.013848,5.82509 -0.985095,1.5418 -2.489658,2.58623 -4.45956,3.28446 -2.879098,1.02048 -5.73639,0.67023 -8.420309,-1.10448 -2.781347,-1.56982 -4.924023,-4.21788 -6.222345,-7.84673 -1.406524,-3.93127 -1.427728,-7.33129 -0.420805,-10.24383 1.006911,-2.91254 2.847096,-4.92781 5.726196,-5.9483 1.818382,-0.64452 3.701621,-0.63053 5.747149,-0.16291 2.045512,0.46761 3.950276,1.49623 5.616825,3.29079 l 0.151529,-0.0537 c 0.195177,-2.7952 0.909801,-5.09301 1.992337,-6.83975 1.028433,-1.8979 2.630437,-3.14725 5.054939,-4.00659 z m -16.571909,12.85936 c -1.969923,0.69823 -3.11734,1.7864 -3.637059,3.67441 -0.725398,1.79048 -0.530828,3.76605 0.280623,6.03408 0.757354,2.11683 1.861116,3.77012 3.40872,4.75499 1.547571,0.98484 3.181876,1.25746 5.000239,0.61294 1.212244,-0.42969 2.110657,-1.25925 2.803486,-2.18634 0.638699,-1.07828 1.01766,-2.40522 1.28844,-4.0346 0.08669,-0.71223 0.06516,-1.72688 0.238514,-3.15131 0.02184,-1.37075 0.04364,-2.74151 -0.03197,-3.90734 -1.861414,-1.38473 -3.3549,-2.2184 -4.783555,-2.39352 -1.428625,-0.17512 -3.052143,0.0596 -4.567436,0.59669 z m 18.91988,-7.72839 c -1.515313,0.53712 -2.716789,1.47409 -3.409596,2.40116 -0.638708,1.07826 -1.212536,2.81506 -1.418484,5.10295 -0.130015,1.06835 -0.108502,2.08296 -0.08696,3.09759 0.02153,1.01464 0.05379,2.53657 -0.01138,4.26344 1.35274,1.39469 2.997746,2.17462 4.686135,2.59845 1.839888,0.37012 3.669025,0.23289 5.487399,-0.41164 2.27297,-0.80563 3.972393,-2.25987 4.892649,-4.46019 0.974348,-2.04911 0.97465,-4.4345 0.109095,-6.85373 -0.865551,-2.41924 -2.229046,-4.32122 -4.133812,-5.34985 -1.753202,-1.08236 -3.842057,-1.19383 -6.115049,-0.38818 z"
       id="path4613" /><path
       inkscape:connector-curvature="0"
       style="fill:#ffffff;fill-opacity:1;fill-rule:nonzero;stroke:none;stroke-width:2.00848985"
       d="m 40.341682,406.81033 0.132409,22.14906 -4.182108,0.0249 -0.05085,-8.50652 -27.505328,0.16289 0.050854,8.5065 -3.6995761,0.022 c -0.00674,-1.12348 -0.1752398,-2.40656 -0.3437635,-3.6896 -0.1685237,-1.28306 -0.4959749,-2.24415 -0.8224913,-3.04475 -0.4873167,-0.79964 -0.9737107,-1.4388 -1.7808613,-1.91551 -0.6462687,-0.4777 -1.6132767,-0.79299 -2.90009056,-0.78537 l -0.0259054,-4.33352 36.99549916,-0.21911 -0.04988,-8.34601 z"
       id="path4615" /><path
       inkscape:connector-curvature="0"
       style="fill:#ffffff;fill-opacity:1;fill-rule:nonzero;stroke:none;stroke-width:2.00848985"
       d="m 40.127713,371.01872 0.132411,22.14906 -4.182108,0.0248 -0.05085,-8.50654 -27.5053262,0.1629 0.050853,8.50653 -3.699575,0.0219 c -0.00674,-1.12351 -0.1752409,-2.40658 -0.3437645,-3.68962 -0.1685217,-1.28306 -0.4959739,-2.24414 -0.8224903,-3.04475 -0.4873177,-0.79964 -0.9737118,-1.43876 -1.7808614,-1.91551 -0.6462707,-0.4777 -1.6132755,-0.793 -2.90009141,-0.78536 l -0.02591,-4.33348 36.99550081,-0.21911 -0.04989,-8.34601 z"
       id="path4617" /><path
       inkscape:connector-curvature="0"
       style="fill:#ffffff;fill-opacity:1;fill-rule:nonzero;stroke:none;stroke-width:2.00848985"
       d="m 53.761292,294.62412 -6.833764,21.07631 -3.980045,-1.28012 2.624564,-8.09454 -26.02336,-8.37016 -2.624564,8.09454 -3.520801,-1.13244 c 0.346644,-1.0691 0.589725,-2.34015 0.832799,-3.6112 0.292614,-1.42377 0.283572,-2.43862 0.175488,-3.14801 -0.211646,-0.91134 -0.62588,-1.71918 -1.089613,-2.37432 -0.616857,-0.70435 -1.436275,-1.30522 -2.458291,-1.80261 l 1.287519,-3.9709 35.054982,11.27512 2.575039,-7.94181 z"
       id="path4619" /><path
       inkscape:connector-curvature="0"
       style="fill:#ffffff;fill-opacity:1;fill-rule:nonzero;stroke:none;stroke-width:2.00848985"
       d="m 54.926091,254.01569 -1.881763,5.80361 10.868571,3.49578 -1.584641,4.88726 -10.868571,-3.49577 -6.041444,18.63269 -6.123156,-1.96944 -15.799281,-25.8262 1.535124,-4.73455 23.727211,7.63163 1.881765,-5.80363 z m -7.75259,9.31228 -17.450978,-5.61295 12.548498,20.73291 z"
       id="path4621" /><path
       inkscape:connector-curvature="0"
       style="fill:#ffffff;fill-opacity:1;fill-rule:nonzero;stroke:none;stroke-width:2.00848985"
       d="m 95.419347,162.32259 c 3.005818,1.8569 5.619753,4.03858 7.653613,6.23985 2.03384,2.20121 3.40251,4.55843 4.32776,7.01962 0.92524,2.46121 1.1853,5.07832 0.7803,7.85146 -0.32001,2.63669 -1.39027,5.56578 -3.17721,8.43001 -0.51059,0.81836 -1.07266,1.41591 -1.58323,2.23428 -0.56208,0.59754 -1.12418,1.19511 -1.60119,1.65628 l -4.508756,-2.78536 0.170193,-0.27279 c 0.52855,-0.24035 1.090642,-0.83791 1.874447,-1.48746 0.783826,-0.64954 1.379486,-1.60429 1.975136,-2.55904 2.12734,-3.40983 2.87279,-6.72851 2.01467,-9.90407 -0.77305,-3.31194 -2.96147,-6.17561 -6.48025,-8.72732 0.10543,1.95477 -0.198977,3.65633 -0.639993,5.27346 -0.355963,1.48075 -1.070287,2.92907 -2.006308,4.4294 -0.936052,1.50033 -1.838479,2.64343 -2.877604,3.70217 -0.953994,0.92233 -2.266351,1.81225 -3.766864,2.39696 -1.80735,0.7731 -3.717737,1.1046 -5.646136,0.85809 -1.791754,-0.16206 -3.738105,-0.98653 -5.787524,-2.2526 -3.552361,-2.19453 -5.740818,-5.05818 -6.480282,-8.7273 -0.876102,-3.75358 -0.182166,-7.29305 1.945178,-10.70287 1.021119,-1.6367 2.230412,-2.96824 3.71294,-4.13093 1.397455,-1.02629 2.931539,-1.96821 4.620214,-2.24771 2.080593,-0.60429 4.5375,-0.59816 7.012407,-0.014 2.338281,0.49967 5.326131,1.77859 8.468587,3.7199 z m -3.93468,4.18291 c -2.459318,-1.51928 -4.542298,-2.42815 -6.30048,-2.94744 -1.706678,-0.29847 -3.361788,-0.37615 -4.69213,-0.0643 -1.193687,0.39634 -2.029042,0.8251 -3.034587,1.52665 -0.783836,0.64951 -1.431028,1.38347 -2.111782,2.47461 -1.361497,2.1823 -1.784548,4.37742 -1.269196,6.58539 0.737055,2.15598 2.224414,4.01961 4.820355,5.62329 1.366276,0.84404 2.766118,1.33091 3.977804,1.51257 1.211681,0.18164 2.456915,0.006 3.735725,-0.52659 1.057052,-0.48076 1.755812,-0.99393 2.402983,-1.72784 0.64719,-0.73397 1.379475,-1.60434 2.060216,-2.69548 0.765838,-1.22753 1.395045,-2.53944 1.751018,-4.02021 0.492585,-1.39632 0.626818,-2.82509 0.761049,-4.25387 -0.188167,-0.30518 -0.598041,-0.55839 -0.871295,-0.7272 -0.273276,-0.16881 -0.819772,-0.50643 -1.22968,-0.75966 z"
       id="path4623" /><path
       inkscape:connector-curvature="0"
       style="fill:#ffffff;fill-opacity:1;fill-rule:nonzero;stroke:none;stroke-width:2.00848985"
       d="m 179.24847,114.32856 -17.4453,13.7511 -2.59644,-3.2633 6.70001,-5.28123 -17.07652,-21.46239 -6.70002,5.28122 -2.29683,-2.88675 c 1.01132,-0.79718 1.79637,-1.62021 2.70782,-2.54287 1.03785,-1.02234 1.59663,-1.87123 1.90258,-2.52084 0.33248,-0.87474 0.53854,-1.649871 0.4185,-2.576367 -0.0202,-0.800981 -0.36655,-1.753328 -1.03905,-2.857082 l 3.28679,-2.590777 22.96842,28.867546 6.5736,-5.18156 z"
       id="path4625" /><path
       inkscape:connector-curvature="0"
       style="fill:#ffffff;fill-opacity:1;fill-rule:nonzero;stroke:none;stroke-width:2.00848985"
       d="m 209.33531,90.612879 -21.86985,17.238691 -3.59506,-4.51841 1.45522,-7.47809 c 0.51836,-2.450853 0.91029,-4.802063 1.30224,-7.153273 0.58415,-4.953464 0.88259,-8.456339 0.5957,-10.885123 -0.18706,-2.303314 -1.07945,-4.459055 -2.47754,-6.21621 -1.29821,-1.63164 -3.02878,-2.514022 -4.73913,-2.59545 -1.93664,-0.107272 -3.7532,0.711944 -5.77585,2.306272 -1.26415,0.996464 -2.55487,2.218087 -3.67241,3.915857 -1.11753,1.697813 -2.13521,3.52111 -2.85329,5.720934 l -0.12642,0.09965 -3.59505,-4.518391 c 0.61188,-1.299204 1.47659,-2.79771 2.9468,-4.569283 1.34381,-1.671935 2.91392,-3.31801 4.43089,-4.513755 3.2868,-2.590785 6.5407,-3.930265 9.73513,-3.793318 2.96818,0.111112 5.77702,1.573121 7.87414,4.20885 0.99864,1.255123 1.64457,2.584013 2.19065,3.787415 0.6459,1.328884 0.8393,2.606049 1.00613,4.108353 0.19337,1.277164 0.26033,2.653965 0.0745,4.230059 0.0669,1.376835 -0.24533,3.052556 -0.35788,4.979332 -0.31865,2.701887 -0.86357,5.377881 -1.40845,8.053929 -0.44507,2.801512 -0.96341,5.252342 -1.35537,7.603572 l 17.3189,-13.651453 z"
       id="path4627" /><path
       inkscape:connector-curvature="0"
       style="fill:#ffffff;fill-opacity:1;fill-rule:nonzero;stroke:none;stroke-width:2.00848985"
       d="m 296.10563,40.453532 c 0.64924,1.809293 0.99475,3.726549 0.92833,5.450242 -0.0123,1.874458 -0.43658,3.555332 -1.21857,5.193419 -0.78209,1.638069 -1.97607,3.082567 -3.43013,4.279516 -1.45407,1.19691 -3.4719,2.254251 -5.59795,3.010045 -2.12604,0.755795 -4.30618,1.360816 -6.44269,1.610326 -2.13649,0.249474 -3.8174,0.336996 -5.40057,0.219764 l -1.94769,-5.42788 0.30371,-0.107962 c 1.63727,0.268002 3.63238,0.578826 5.82295,0.480097 2.03873,-0.0447 4.12112,-0.444975 5.94346,-1.092807 1.21486,-0.431872 2.37565,-1.014538 3.33047,-1.693972 1.05259,-0.884215 1.89919,-1.865179 2.53985,-2.942983 0.48877,-1.023792 0.61977,-2.0904 0.6966,-3.307774 -0.075,-1.1634 -0.20412,-2.477551 -0.69101,-3.834527 -0.48693,-1.356965 -1.16938,-2.304426 -1.94956,-3.047109 -0.7802,-0.742695 -1.65817,-1.280621 -2.6339,-1.613786 -1.12755,-0.279187 -2.35288,-0.353612 -3.82785,-0.169305 -1.26897,0.281107 -2.84166,0.670182 -4.36027,1.210041 -1.51861,0.53985 -3.03723,1.079706 -4.29576,1.867109 -1.4645,0.69064 -2.62528,1.273302 -3.42824,1.898755 l -7.08746,-19.751439 23.23465,-8.259734 1.62308,4.523226 -18.22326,6.478225 3.62489,10.101885 c 0.7593,-0.269928 1.51861,-0.539857 2.2238,-0.960548 0.75931,-0.269927 1.36676,-0.485871 1.9742,-0.701813 2.12604,-0.755787 4.00247,-1.252844 5.6834,-1.340373 1.77865,-0.292299 3.36179,-0.175089 5.05319,0.243718 1.69133,0.418785 3.18718,1.247068 4.48751,2.484886 1.30034,1.237827 2.25328,2.939149 3.06482,5.200764 z"
       id="path4629" /></g></svg>