<?xml version="1.0" encoding="UTF-8" standalone="no"?>
<svg
   version="1.0"
   width="1804.000000pt"
   height="1567.000000pt"
   viewBox="0 0 1804.000000 1567.000000"
   preserveAspectRatio="xMidYMid meet"
   id="svg9"
   sodipodi:docname="hand.svg"
   inkscape:version="1.3.2 (091e20e, 2023-11-25, custom)"
   xmlns:inkscape="http://www.inkscape.org/namespaces/inkscape"
   xmlns:sodipodi="http://sodipodi.sourceforge.net/DTD/sodipodi-0.dtd"
   xmlns="http://www.w3.org/2000/svg"
   xmlns:svg="http://www.w3.org/2000/svg">
  <defs
     id="defs9" />
  <sodipodi:namedview
     id="namedview9"
     pagecolor="#ffffff"
     bordercolor="#000000"
     borderopacity="0.25"
     inkscape:showpageshadow="2"
     inkscape:pageopacity="0.0"
     inkscape:pagecheckerboard="0"
     inkscape:deskcolor="#d1d1d1"
     inkscape:document-units="pt"
     showgrid="false"
     inkscape:zoom="0.87061264"
     inkscape:cx="1203.1757"
     inkscape:cy="1044.6667"
     inkscape:window-width="3840"
     inkscape:window-height="2054"
     inkscape:window-x="-11"
     inkscape:window-y="-11"
     inkscape:window-maximized="1"
     inkscape:current-layer="svg9" />
  <g
     transform="translate(0.000000,1567.000000) scale(0.100000,-0.100000)"
     fill="#FF0000"
     stroke="none"
     id="g9">
    <path
       d="M12805 14776 c-132 -67 -265 -137 -295 -155 -30 -18 -145 -78 -255 -133 -110 -55 -219 -114 -243 -130 -23 -16 -86 -47 -139 -69 -173 -72 -457 -225 -503 -271 -20 -19 -69 -131 -170 -385 -79 -197 -188 -464 -243 -593 -55 -129 -144 -345 -199 -480 -55 -135 -127 -309 -160 -388 -33 -78 -59 -145 -56 -147 6 -6 447 222 678 350 102 56 259 142 349 190 274 146 301 164 334 220 16 28 75 133 130 235 403 744 786 1443 882 1610 83 143 140 258 133 265 -2 2 -111 -52 -243 -119z"
       id="path1" />
    <path
       d="M13259 14658 c-24 -40 -120 -224 -214 -408 -95 -184 -234 -452 -310 -595 -75 -143 -183 -345 -238 -450 -150 -286 -255 -473 -300 -538 -44 -63 -100 -109 -187 -152 -103 -52 -1691 -964 -2080 -1195 -118 -70 -321 -188 -450 -263 -687 -394 -949 -547 -1083 -630 l-147 -92 262 -262 c145 -145 268 -263 275 -263 7 0 40 20 75 44 77 54 82 57 2073 1301 1670 1044 1776 1109 1835 1125 40 12 619 6 1105 -11 422 -14 929 -26 934 -22 7 5 -18 54 -61 121 -22 34 -43 75 -47 90 -3 15 -37 76 -76 135 -38 60 -101 157 -139 215 -38 59 -106 168 -151 242 -45 74 -105 173 -134 220 -28 47 -134 222 -235 390 -464 774 -647 1070 -661 1070 -2 0 -22 -33 -46 -72z"
       id="path2" />
    <path
       d="M8484 12035 c-126 -27 -217 -71 -584 -282 -96 -55 -402 -226 -680 -380 -745 -413 -1886 -1059 -1956 -1109 -166 -117 -254 -278 -254 -465 0 -95 23 -186 63 -252 37 -61 133 -152 195 -185 73 -39 174 -58 230 -43 95 26 421 185 647 316 181 105 173 98 216 193 96 212 152 298 273 418 174 174 370 278 619 331 112 24 346 23 489 -1 59 -9 117 -15 128 -11 12 4 61 29 108 57 48 28 170 95 272 150 102 56 271 149 375 208 105 59 312 174 460 255 149 82 333 185 410 230 77 45 166 92 198 105 31 13 57 27 57 31 0 7 -170 140 -270 211 -163 115 -345 198 -485 223 -111 19 -423 19 -511 0z"
       id="path3" />
    <path
       d="M12741 11958 c-22 -4 -50 -12 -61 -18 -45 -24 -617 -401 -900 -593 -374 -254 -527 -367 -508 -378 14 -8 379 -23 968 -39 190 -5 480 -14 645 -19 165 -6 338 -7 385 -4 85 6 85 6 170 67 47 34 179 124 293 201 552 371 658 444 727 501 41 33 102 75 135 94 96 54 255 154 255 161 0 3 -282 9 -627 14 -346 4 -811 10 -1035 14 -224 3 -425 3 -447 -1z"
       id="path4" />
    <path
       d="M10145 10220 c-735 -459 -961 -603 -1016 -650 l-31 -26 168 -184 c92 -102 335 -365 539 -585 359 -386 672 -734 879 -975 84 -99 276 -347 301 -388 12 -22 -18 -3 -181 115 -82 60 -196 142 -254 183 -412 290 -749 549 -930 716 -52 48 -394 385 -760 748 -815 810 -897 885 -1040 942 -138 56 -375 74 -527 41 -149 -32 -322 -136 -408 -244 -56 -70 -127 -214 -150 -303 -28 -108 -31 -297 -7 -414 40 -191 122 -320 556 -871 61 -77 192 -246 291 -375 100 -129 250 -323 333 -430 176 -226 346 -457 379 -516 13 -22 34 -94 47 -160 14 -65 49 -227 80 -359 108 -465 268 -1232 291 -1396 26 -176 22 -178 -71 -31 -196 307 -283 441 -328 502 -72 98 -90 139 -140 333 -40 154 -146 520 -247 849 -32 107 -71 170 -214 353 -48 61 -128 164 -178 230 -98 128 -203 245 -219 245 -6 0 -69 -49 -141 -108 -73 -59 -249 -199 -392 -312 -143 -112 -332 -260 -420 -330 -88 -70 -254 -198 -370 -285 -350 -263 -422 -330 -473 -437 -83 -173 -50 -381 81 -510 100 -98 227 -144 377 -136 77 5 99 11 172 46 94 46 140 80 882 656 296 229 545 420 553 423 13 5 14 -59 8 -503 -10 -693 11 -1065 80 -1435 56 -304 167 -677 282 -944 251 -588 750 -1212 1237 -1548 166 -115 177 -125 244 -240 59 -101 105 -186 402 -732 165 -305 340 -605 352 -605 10 0 1781 1184 2323 1554 242 165 583 396 758 514 208 140 315 217 310 225 -4 7 -156 226 -338 487 -182 261 -383 552 -447 645 l-115 171 -6 319 c-3 176 -10 534 -16 795 -6 261 -15 815 -21 1230 -6 415 -15 940 -21 1165 -5 226 -14 581 -18 790 -8 346 -11 386 -30 445 -28 89 -93 203 -169 298 -70 89 -376 393 -927 922 -425 408 -569 540 -587 540 -7 -1 -337 -203 -733 -450z"
       id="path5" />
    <path
       d="M6240 9267 c-193 -86 -468 -220 -1285 -624 -533 -264 -1077 -533 -1208 -597 -230 -113 -241 -119 -316 -194 -44 -43 -90 -99 -104 -128 -111 -221 -69 -511 102 -698 105 -114 289 -196 446 -196 141 0 239 48 520 256 278 206 454 327 1040 714 626 413 880 578 1032 671 68 41 123 78 123 82 0 5 -20 36 -44 70 -128 183 -225 417 -251 610 -7 49 -13 53 -55 34z"
       id="path7" />
    <path
       d="M6736 8205 c-82 -63 -305 -210 -526 -345 -102 -62 -284 -177 -405 -255 -121 -78 -317 -201 -435 -274 -118 -73 -284 -179 -368 -235 l-154 -101 6 -35 c16 -102 123 -243 222 -293 118 -60 274 -78 384 -44 104 31 174 81 1089 766 349 262 479 355 567 407 16 10 13 17 -41 95 -83 118 -195 266 -241 317 l-39 43 -59 -46z"
       id="path8" />
    <path
       d="M2605 6949 c-170 -121 -416 -295 -545 -387 -247 -175 -728 -533 -989 -737 -153 -119 -593 -497 -599 -515 -4 -11 134 54 653 309 452 223 977 495 1485 771 190 103 402 216 473 251 70 35 127 68 127 73 0 5 -40 71 -90 146 -49 75 -110 175 -135 223 -26 48 -52 87 -58 86 -7 0 -151 -99 -322 -220z"
       id="path9" />
  </g>
</svg>
