<?xml version="1.0" encoding="UTF-8" standalone="no"?>
<!-- Uploaded to: SVG Repo, www.svgrepo.com, Generator: SVG Repo Mixer Tools -->

<svg
   fill="#000000"
   width="800px"
   height="800px"
   viewBox="0 0 16 16"
   version="1.1"
   id="svg1"
   sodipodi:docname="audio-volume-muted-symbolic-svgrepo-com.svg"
   inkscape:version="1.3.2 (091e20e, 2023-11-25, custom)"
   xmlns:inkscape="http://www.inkscape.org/namespaces/inkscape"
   xmlns:sodipodi="http://sodipodi.sourceforge.net/DTD/sodipodi-0.dtd"
   xmlns="http://www.w3.org/2000/svg"
   xmlns:svg="http://www.w3.org/2000/svg">
  <defs
     id="defs1" />
  <sodipodi:namedview
     id="namedview1"
     pagecolor="#ffffff"
     bordercolor="#000000"
     borderopacity="0.25"
     inkscape:showpageshadow="2"
     inkscape:pageopacity="0.0"
     inkscape:pagecheckerboard="0"
     inkscape:deskcolor="#d1d1d1"
     inkscape:zoom="2.27375"
     inkscape:cx="400"
     inkscape:cy="400.2199"
     inkscape:window-width="3840"
     inkscape:window-height="2054"
     inkscape:window-x="-11"
     inkscape:window-y="-11"
     inkscape:window-maximized="1"
     inkscape:current-layer="svg1" />
  <path
     d="M14.266 1.264l-13 13 .47.472 3.239-3.238L8 14.666V8.473l2.312-2.313c.467.542.737 1.227.737 1.947 0 .796-.316 1.559-.88 2.122l-.353.353.707.707.354-.353a4 4 0 0 0 1.172-2.829c0-.985-.377-1.923-1.03-2.654l1.422-1.422a5.994 5.994 0 0 1 1.608 4.076 5.999 5.999 0 0 1-1.758 4.243l-.354.353.707.707.354-.353a7 7 0 0 0 2.05-4.95 6.994 6.994 0 0 0-1.9-4.783l1.588-1.588zM8 1.334L4.5 5H1.871S1 5.894 1 8.002C1 10.11 1.871 11 1.871 11h1.422L8 6.293z"
     opacity=".5"
     fill="gray"
     id="path1" />
  <path
     style="fill:#333333;stroke-width:0.439802"
     d="M 90.804485,546.34415 C 72.50789,523.25753 58.751759,486.50404 53.232336,445.95932 c -4.463198,-32.78587 -3.890924,-70.41335 1.548381,-101.8074 6.419524,-37.05158 19.40478,-69.58205 36.223568,-90.74672 l 2.684146,-3.37771 65.855069,-0.0122 65.85507,-0.0122 87.08081,-91.23842 87.08082,-91.238419 0.11072,123.465029 0.11073,123.46503 L 282.02417,432.21442 164.2667,549.97251 H 128.97337 93.680035 Z"
     id="path2"
     transform="scale(0.02)" />
  <path
     style="fill:#4d4d4d;stroke-width:0.439802"
     d="M 75.20599,724.79367 63.554626,713.1361 388.34629,388.3442 713.13794,63.552318 l 11.65436,11.654356 11.65436,11.654355 -39.66131,39.692081 -39.66135,39.69208 4.19783,4.61792 c 50.43923,55.48719 81.78045,126.1294 89.17136,200.98956 2.39569,24.26523 1.99367,53.01943 -1.07918,77.18526 -8.33051,65.5142 -34.60882,126.64211 -76.47745,177.89995 -7.70432,9.43208 -13.30775,15.52048 -26.82753,29.14946 l -13.86432,13.97626 -17.48394,-17.47981 -17.48394,-17.47984 13.08979,-13.20893 c 7.19938,-7.26492 15.0842,-15.4849 17.52185,-18.26665 57.38295,-65.48381 83.56846,-151.93769 72.02836,-237.80831 -6.03949,-44.94019 -22.15951,-87.88985 -47.15619,-125.64156 -8.00312,-12.08686 -17.87646,-24.73849 -28.96831,-37.11974 l -1.69228,-1.88902 -35.71206,35.75378 -35.71206,35.75378 2.85634,3.29851 c 3.76431,4.34704 11.22256,14.15506 14.60891,19.21155 17.76118,26.52074 28.52785,55.162 32.70478,87.00066 0.84829,6.46615 0.9837,9.55703 1.002,22.8697 0.0216,15.65576 -0.17473,18.66473 -2.00497,30.73163 -4.81003,31.71314 -18.05986,63.35027 -37.21491,88.8594 -6.43831,8.57403 -11.87017,14.66582 -24.06346,26.98705 l -12.30927,12.43844 -17.48099,-17.47686 -17.48097,-17.4769 11.5399,-11.67401 c 6.34696,-6.42076 13.25982,-13.77478 15.36189,-16.34236 34.71363,-42.40031 43.9328,-99.25175 24.20473,-149.26244 -5.58636,-14.16143 -13.55923,-27.83305 -23.43151,-40.17948 l -3.25238,-4.06747 -57.96734,57.96611 -57.96735,57.9661 -0.11057,154.47373 -0.11056,154.47371 -75.3978,-78.96427 -75.3978,-78.96431 -80.95363,80.95275 -80.953616,80.95274 z"
     id="path3"
     transform="scale(0.02)" />
  <path
     style="fill:#4d4d4d;stroke-width:0.439802"
     d="M 90.777931,545.88904 C 69.660944,518.4566 56.072705,477.92305 51.601753,429.02694 c -0.983508,-10.75603 -1.129829,-44.80415 -0.237201,-55.19516 3.322783,-38.68023 11.378064,-69.68111 25.211707,-97.02767 4.568468,-9.03101 9.617214,-16.83042 16.93017,-26.15408 0.417107,-0.53179 10.097831,-0.62475 66.410111,-0.63767 l 65.92183,-0.0151 86.64101,-90.8158 86.64102,-90.815797 0.2199,122.826527 0.2199,122.82653 -117.86665,117.97691 -117.86666,117.97691 -34.96457,-0.0153 -34.964574,-0.0153 z"
     id="path4"
     transform="scale(0.02)" />
</svg>
