<?xml version="1.0" encoding="UTF-8" standalone="no"?>
<!-- Uploaded to: SVG Repo, www.svgrepo.com, Generator: SVG Repo Mixer Tools -->

<svg
   fill="#000000"
   width="800px"
   height="800px"
   viewBox="0 0 24 24"
   version="1.1"
   id="svg3"
   sodipodi:docname="unmute-svgrepo-com.svg"
   inkscape:version="1.3.2 (091e20e, 2023-11-25, custom)"
   xmlns:inkscape="http://www.inkscape.org/namespaces/inkscape"
   xmlns:sodipodi="http://sodipodi.sourceforge.net/DTD/sodipodi-0.dtd"
   xmlns="http://www.w3.org/2000/svg"
   xmlns:svg="http://www.w3.org/2000/svg">
  <defs
     id="defs3" />
  <sodipodi:namedview
     id="namedview3"
     pagecolor="#ffffff"
     bordercolor="#000000"
     borderopacity="0.25"
     inkscape:showpageshadow="2"
     inkscape:pageopacity="0.0"
     inkscape:pagecheckerboard="0"
     inkscape:deskcolor="#d1d1d1"
     inkscape:zoom="2.27375"
     inkscape:cx="400"
     inkscape:cy="400.2199"
     inkscape:window-width="3840"
     inkscape:window-height="2054"
     inkscape:window-x="-11"
     inkscape:window-y="-11"
     inkscape:window-maximized="1"
     inkscape:current-layer="svg3" />
  <path
     fill-rule="evenodd"
     d="M11.553 3.064A.75.75 0 0112 3.75v16.5a.75.75 0 01-1.255.555L5.46 16H2.75A1.75 1.75 0 011 14.25v-4.5C1 8.784 1.784 8 2.75 8h2.71l5.285-4.805a.75.75 0 01.808-.13zM10.5 5.445l-4.245 3.86a.75.75 0 01-.505.195h-3a.25.25 0 00-.25.25v4.5c0 .138.112.25.25.25h3a.75.75 0 01.505.195l4.245 3.86V5.445z"
     id="path1" />
  <path
     d="M18.718 4.222a.75.75 0 011.06 0c4.296 4.296 4.296 11.26 0 15.556a.75.75 0 01-1.06-1.06 9.5 9.5 0 000-13.436.75.75 0 010-1.06z"
     id="path2" />
  <path
     d="M16.243 7.757a.75.75 0 10-1.061 1.061 4.5 4.5 0 010 6.364.75.75 0 001.06 1.06 6 6 0 000-8.485z"
     id="path3" />
  <path
     style="fill:#4d4d4d;stroke-width:0.439802"
     d="m 371.49672,699.50909 c -3.68066,-0.65816 -6.91863,-1.86247 -9.47828,-3.52536 -1.36413,-0.88625 -42.33959,-37.85284 -91.05658,-82.148 l -88.57635,-80.5367 -48.86181,-0.15374 C 85.576255,532.99444 84.585513,532.97408 80.579743,532.05775 59.454152,527.22519 43.740489,513.58565 36.930359,494.16988 33.417827,484.15561 33.64486,490.66289 33.64486,400 c 0,-90.66289 -0.227033,-84.15561 3.285499,-94.16988 6.804559,-19.39989 22.541079,-33.05926 43.649384,-37.88787 4.00577,-0.91633 4.996512,-0.93669 52.943957,-1.08754 l 48.86181,-0.15374 88.57635,-80.52983 c 48.71699,-44.2914 89.57365,-81.19333 90.79257,-82.00428 9.30182,-6.188508 22.46967,-4.763705 30.50465,3.3007 3.4357,3.44828 5.96282,7.95615 6.87598,12.26536 0.94986,4.48237 0.94986,556.0518 0,560.53417 -1.78697,8.43268 -8.89238,16.05111 -17.26215,18.50841 -2.98433,0.87618 -7.71023,1.21029 -10.37619,0.73359 z m -21.52334,-408.88534 -0.11082,-109.37626 -71.24794,64.81018 c -39.18636,35.6456 -72.42112,65.57152 -73.85502,66.50204 -1.4339,0.93052 -3.90779,2.13424 -5.49753,2.67493 l -2.89044,0.98306 -53.65585,0.2199 c -58.714188,0.24064 -54.780818,0.0543 -57.263232,2.71298 -2.474314,2.65002 -2.329953,-2.35929 -2.329953,80.84942 0,83.20871 -0.144361,78.1994 2.329953,80.84942 2.482414,2.6587 -1.450956,2.47234 57.263232,2.71298 l 53.65585,0.2199 2.89044,0.98306 c 1.58974,0.54069 4.06363,1.74441 5.49753,2.67493 1.4339,0.93052 34.66866,30.85644 73.85502,66.50205 l 71.24794,64.81016 0.11082,-109.37625 c 0.061,-60.15694 0.061,-158.59556 0,-218.7525 z"
     id="path4"
     transform="scale(0.03)" />
  <path
     style="fill:#4d4d4d;stroke-width:0.439802"
     d="m 518.43063,547.09052 c -10.80144,-2.61863 -18.83559,-12.90323 -18.80896,-24.07753 0.0166,-6.97966 2.44987,-12.13834 9.09645,-19.28536 23.30244,-25.05695 36.37114,-53.1618 40.66637,-87.45495 0.76521,-6.10941 0.76521,-26.43595 0,-32.54536 -4.27695,-34.14719 -17.62559,-62.91607 -40.46178,-87.20286 -5.54343,-5.89556 -6.96119,-7.96131 -8.5024,-12.38844 -1.01537,-2.91665 -1.23421,-4.28554 -1.23906,-7.75053 -0.009,-6.73678 1.96721,-11.8454 6.4673,-16.71483 4.25594,-4.60525 9.12931,-7.15901 15.21221,-7.97155 4.53566,-0.60587 9.02749,0.20898 13.90419,2.52231 2.83904,1.34673 4.11817,2.37508 8.63227,6.93983 20.21341,20.4402 36.49638,47.19836 45.94793,75.50725 13.82619,41.41166 13.80521,85.37575 -0.0605,126.80884 -8.42347,25.1707 -21.85251,48.43142 -39.65264,68.68319 -9.02859,10.2721 -12.96236,13.29745 -19.43302,14.94539 -3.19346,0.81331 -8.37802,0.80652 -11.76834,-0.0154 z"
     id="path5"
     transform="scale(0.03)" />
  <path
     style="fill:#4d4d4d;stroke-width:0.439802"
     d="m 636.29759,664.95749 c -10.80144,-2.61862 -18.83559,-12.90326 -18.80896,-24.07753 0.0172,-7.21782 2.50536,-12.33456 9.64149,-19.82716 11.36983,-11.93781 17.66476,-19.31356 26.24316,-30.74907 21.85815,-29.13822 38.82992,-62.37131 49.35871,-96.65123 22.15225,-72.12395 18.22418,-148.35001 -11.2352,-218.02444 -4.04781,-9.57347 -13.30081,-27.87697 -18.58083,-36.75499 -13.12668,-22.07172 -27.37253,-40.7273 -45.55298,-59.65372 -5.94401,-6.1879 -7.48901,-8.39249 -9.07571,-12.95029 -0.99566,-2.86003 -1.2343,-4.30803 -1.23906,-7.51805 -0.0108,-7.29307 2.14358,-12.56468 7.20215,-17.62325 5.05035,-5.05035 10.65059,-7.37435 17.64079,-7.32061 8.13636,0.0625 12.67356,2.483 21.27406,11.34903 44.85558,46.24046 76.31092,102.6804 92.15024,165.34409 17.10925,67.68784 14.37269,139.32285 -7.86291,205.82738 -17.4443,52.17422 -47.43396,101.33106 -84.67079,138.78615 -6.85128,6.89143 -9.17427,8.44776 -14.71582,9.85909 -3.19346,0.81328 -8.37802,0.80651 -11.76834,-0.0154 z"
     id="path6"
     transform="scale(0.03)" />
</svg>
